<svg xmlns="http://www.w3.org/2000/svg" xmlns:xlink="http://www.w3.org/1999/xlink" width="628" height="506" viewBox="0 0 628 506">
  <defs>
    <clipPath id="clip-path">
      <rect id="Rectangle_4" data-name="Rectangle 4" width="628" height="506" transform="translate(1243 1863)" fill="#fff"/>
    </clipPath>
    <linearGradient id="linear-gradient" x1="0.5" y1="1" x2="0.5" gradientUnits="objectBoundingBox">
      <stop offset="0" stop-color="gray" stop-opacity="0.251"/>
      <stop offset="0.54" stop-color="gray" stop-opacity="0.122"/>
      <stop offset="1" stop-color="gray" stop-opacity="0.102"/>
    </linearGradient>
  </defs>
  <g id="Mask_Group_1" data-name="Mask Group 1" transform="translate(-1243 -1863)" clip-path="url(#clip-path)">
    <g id="undraw_High_five_u364" transform="translate(1243.003 1877.558)">
      <path id="Path_95" data-name="Path 95" d="M208.422,439.457c-5.288-.535-10.811-1.107-15.819.292s-9.157,5.487-7.67,9.393c3.322,8.709,22.817,2.644,31.806,8.6,3.21,2.127,4.46,5.474,6.967,8.087,4.056,4.242,11.029,6.221,17.76,7.309,40.434,6.538,86.529-10.289,121.968,5.916,11.477,5.25,20.528,13.6,33.112,17.107,16.671,4.641,34.929-.317,52.179-3.5a255.219,255.219,0,0,1,65.248-3.421c16.13,1.244,37.585,1.661,42.748-10.053,3.322-7.533-3.707-15.919-13.038-19.483s-20.254-3.452-30.674-3.11c-20.111.722-40.229,2.177-60.34,1.468-38.891-1.381-75.63-16.8-113.5-17.306C295.063,440.222,252.732,443.923,208.422,439.457Z" transform="translate(-59.239 -41.485)" fill="#0a2463" opacity="0.1"/>
      <path id="Path_96" data-name="Path 96" d="M167.534,244.471c-6.221,6.289-6.6,15.931-6.6,15.931s9.636-.547,15.832-6.843,6.606-15.931,6.606-15.931S173.73,238.194,167.534,244.471Z" transform="translate(-59.239 -41.485)" fill="#6c63ff" opacity="0.1"/>
      <path id="Path_97" data-name="Path 97" d="M192.572,89.1c2.2,8.553,10.252,13.872,10.252,13.872s4.5-8.541,2.3-17.094-10.252-13.866-10.252-13.866S190.351,80.557,192.572,89.1Z" transform="translate(-59.239 -41.485)" fill="#6c63ff" opacity="0.1"/>
      <path id="Path_98" data-name="Path 98" d="M556.38,112.631c-6.221,6.289-6.606,15.931-6.606,15.931s9.642-.547,15.838-6.843,6.6-15.937,6.6-15.937S562.575,106.373,556.38,112.631Z" transform="translate(-59.239 -41.485)" fill="#6c63ff" opacity="0.1"/>
      <path id="Path_99" data-name="Path 99" d="M366.781,200.765c-.722,8.8,5.144,16.46,5.144,16.46s7.048-6.6,7.77-15.4-5.144-16.447-5.144-16.447S367.5,191.962,366.781,200.765Z" transform="translate(-59.239 -41.485)" fill="#6c63ff" opacity="0.1"/>
      <path id="Path_100" data-name="Path 100" d="M570.855,324.126c-.722,8.8,5.144,16.46,5.144,16.46s7.048-6.6,7.77-15.4-5.145-16.46-5.145-16.46S571.577,315.33,570.855,324.126Z" transform="translate(-59.239 -41.485)" fill="#6c63ff" opacity="0.1"/>
      <path id="Path_101" data-name="Path 101" d="M424.11,101.44c-40.26-1.213-78.6-12.441-115.219-24.758S236.011,50.748,196.715,44.229c-25.274-4.193-54.182-4.784-74.542,6.942C102.572,62.449,96.239,81.926,92.837,100c-2.563,13.592-4.068,27.9,2.949,40.627,4.877,8.84,13.524,16.267,19.508,24.727,20.82,29.455,6.1,65.771-16.454,94.554-10.575,13.493-22.861,26.357-31.029,40.72s-11.944,30.811-4.8,45.454c7.079,14.519,23.956,25.424,42.238,33.094,37.131,15.552,80.868,20.037,123.548,22.562,94.448,5.6,189.393,3.172,284.09.746,35.047-.9,70.243-1.8,104.718-6.494,19.147-2.6,38.91-6.731,52.813-16.709,17.642-12.665,22.015-34.108,10.189-49.989-19.831-26.631-74.648-33.249-88.526-61.833-7.627-15.732.205-33.255,11.3-47.849,23.788-31.3,63.656-58.766,65.752-94.554,1.443-24.571-17.723-49.18-47.358-60.807-31.06-12.192-74.138-10.656-97.042,9.518C501.128,94.51,459.661,102.5,424.11,101.44Z" transform="translate(-59.239 -41.485)" fill="#178c86"/>
      <path id="Path_102" data-name="Path 102" d="M553.748,221.909l-.622-.1-2.32-.373s-12.292-1.014-14.587-.858-3.732-2.109-3.732-2.109l-9.138-7.732-.709-.622c.989-.373,1.6-.566,1.6-.566s-24.522-30.481-29.809-31.072-14.028-7.707-14.115-7.776l-.093-.485c-.193-1.026-.336-2.065-.442-3.11l1.3.8h0a10.489,10.489,0,0,1,.037-1.082h0a19.683,19.683,0,0,1,3.658-10.451c2.557-3.546,6.339-6.333,7.85-10.42a15.059,15.059,0,0,0,.8-5.468,18.226,18.226,0,0,0-2.55-9.511,11.881,11.881,0,0,0-8.025-5.536c-.871-.137-1.76-.156-2.619-.355-5.107-1.2-6.986-8.049-11.95-9.729a10.065,10.065,0,0,0-7.123.7c-2.233.97-4.255,2.364-6.438,3.44s-4.659,1.866-6.644,3.39a6.937,6.937,0,0,0-.622.535h0l-.392.379h0a14.085,14.085,0,0,0-2.121,2.768l-.093.156c-.062.106-.118.218-.174.33s-.093.174-.131.261-.1.2-.143.3l-.131.3-.112.286c-.037.106-.081.212-.112.323s-.062.18-.087.274l-.093.33-.056.267a2.2,2.2,0,0,1-.062.342,1.1,1.1,0,0,0,0,.249v1.151a3.79,3.79,0,0,0,.112.541h0a10.869,10.869,0,0,0,2.376,3.334c-.1.093-.2.18-.3.28a21.685,21.685,0,0,0-6.637,15.62,21.393,21.393,0,0,0,.355,3.863,20.728,20.728,0,0,0-3.627-2.2,31.656,31.656,0,0,0-13.493-3.11c-7.62-.087-18.326-2.949-18.326-2.949a7.277,7.277,0,0,1,.622,1.648c-.467-.267-.97-.554-1.524-.852a44.677,44.677,0,0,0-14.307-4.79s-3.173.442-3.6-6.221a28.246,28.246,0,0,0-1.12-6.14,104.643,104.643,0,0,1-3.77-18.662l-1.064-9.779s4.79-25.5,1.91-36.378c.927-3.409.4-6.532-2.65-8.777-12.049-8.871-24.2,25.654-24.2,25.654L350,86.6a9.692,9.692,0,0,0-3.832-1.462s-2.432,2.488-4.124,9.281c-.9,3.6-7.017,9.617-12.553,14.463-3.931,3.44-7.726,7.017-11.514,10.606-2.8,2.662-9.039,6.469-22.649,8.622-2.134.336-4.074.653-5.847.946a18.245,18.245,0,0,0,.684-4.939,18.525,18.525,0,0,0-14.531-18,4.641,4.641,0,0,0,0-1.313,5.437,5.437,0,0,0-1.375-2.488c-2.868-3.546-5.978-7.191-10.245-8.871a13.343,13.343,0,0,0-5.53-.89h-1.518a14.171,14.171,0,0,0-10.364,5.4c-1.53,2.047-2.451,4.473-3.77,6.656a29.607,29.607,0,0,1-10.308,9.623c-2.457,1.487-5.039,2.768-7.359,4.454-8.417,6.115-12.3,17.418-10.183,27.52.933,4.435,2.905,8.8,2.376,13.3-.417,3.49-2.3,6.625-4.211,9.586s-3.944,5.972-4.7,9.4.037,7.465,2.911,9.542a22.964,22.964,0,0,1,3.241,2.165,10.389,10.389,0,0,1,1.493,2.339,23.278,23.278,0,0,0,14.475,11.247,10.575,10.575,0,0,0,2.961.323h.3c2.283.143,4.622-.467,5.387-2.488a5.648,5.648,0,0,1,.516-1.319,1.549,1.549,0,0,1,.9-.622,8.285,8.285,0,0,1,2.109.8,26.823,26.823,0,0,0,10.252,2.93,14.434,14.434,0,0,0,1.8.031,7.95,7.95,0,0,0,3.664-.523,7.851,7.851,0,0,0,2.818-2.414c.162-.205.311-.423.467-.622a51.452,51.452,0,0,1-4.591,14.307s-3.732,6.221-3.465,12.491a12.547,12.547,0,0,0,1.4,6.594s.106-.274.323-.7c1.07,1.792,4.578,7.521,6.88,9.53.112,5.916.087,13.325-.653,14.849-1.244,2.606-5.176,21.15,11.732,33.8l3.9,8.541L261.2,300.432c-1.624-.224-22.618-3.048-22.724,1.064-.106,4.274,3.173,45.89,14.059,43.072,10.146-2.625,6.8-14.762,6.3-16.391l.361-.1-.4-.112,8.118-7.695a3.6,3.6,0,0,0-.622-2.669l.081-.044,19.607.877,4.61,10.015s7.819,11.894,1.48,21.9-12.9,25.66-13.953,35.153c-.865,7.763-6.613,15.39-8.672,17.9-3.676,1.244-17.779,6.781-12.149,15.16,6.445,9.592,27.371,27.85,35.831,27.221s5.07-6.78,5.07-6.78l-7.073-6.855s-1.244-14.606-.74-18.88a4.4,4.4,0,0,0-3.11-4.5c.666-4.759,2.351-13.779,5.972-18.761,5.07-6.992,21.349-37.759,21.349-37.759s5.176-4.591,4.012-18.251c-.467-5.511-.728-10.351-.877-14.177l18.426.827s19.763-1.984,6.339-23.159-41.958-41.927-41.958-41.927l-.255-13.107c1.294.323,2.053.485,2.053.485s-.112-.473-.3-1.319l.3.068s-4.124-17.847-5.393-32.036l1.163.535c12.261,14.189,20.528,2.2,20.528,2.2s25.9-36.4,23.358-34.736a2.2,2.2,0,0,1-1.7.106l1.866-5.947s7.645-11.682-3.452-18.251c-9.057-5.362-8.821,11.446-8.429,17.8l-.448-.379s-8.665,13.063-13.318,20.341-8.56,2.488-8.56,2.488l-5.879-6.625a23.271,23.271,0,0,0,1.4-8.286,14.077,14.077,0,0,0-3.975-10.749c-4.485-4.572-5.8-9-5.935-12.41a13.137,13.137,0,0,1,1.176-5.113l30.549-16.174s6.445.1,15.11-13.25a229.177,229.177,0,0,1,18.5-24.4s-.18-.261-.491-.69c.311-.367.491-.566.491-.566s-.355-.516-.958-1.313l4.709-5.431a69.672,69.672,0,0,0-.056,7.371l2.438,8.242L366.4,150.3s-1.481,4.354,8.037,8.765c8.049,3.732,20.8,9.953,24.522,11.788-.137.336-.218.516-.218.516l1.107-.075.162.075h0c18.593-1.667,17.959,16.9,17.959,16.9s1.244,37.759-4.435,50.9-4.865,29.411-4.865,29.411.566-2.774,3.732.852c-.062.317-.131.659-.205,1.014-1.816,9.1-5.6,28.459-6.3,36.31a127.226,127.226,0,0,1-4.124,21.15l-1.866,34.73,11.888.579-.131,1.244a3.906,3.906,0,0,1-2.015,3.029c-4.068,2.208-13.685,9.953-12.914,33.853l-.411,3.844a48.3,48.3,0,0,1-5.8,18.544c-.274.485-.516.952-.722,1.4a1.144,1.144,0,0,1,.323-.666s-6.177,1.281-4.908,17.971,3.172,19.607,5.711,19.813,14.93,3.235,14.264-2.917-1.244-19.819-.423-21.9,4.193-7.707,1-9.063h0a47.677,47.677,0,0,0,1.337-11.695s6.221-9.8,10.668-13.455,6.843-9.853,8.454-17.835c.112-.523,13.107-9.182,11.2-16.373-.336-1.244-.579-2.345-.765-3.34-.081-.442-.149-.858-.212-1.244h.23l2.644-15.856v15.44l1.568.205-.056,1.244-.666,14.805a24.374,24.374,0,0,1-1.866,8.385c-2.8,6.625-7.962,21.374-6.557,37.324l-.149,14.22c-.448.087-6.9,1.611-5.679,17.729,1.244,16.684,3.166,19.607,5.7,19.813s14.93,3.235,14.27-2.917-1.244-19.819-.423-21.9,2.3-7.6-.9-8.951a11.919,11.919,0,0,1,1.331-5.368c1.393-2.37,6.046-13.636,9.549-22.3a79.816,79.816,0,0,0,5.879-27.576q0-.159,0-.317a25.852,25.852,0,0,1,2.022-9.287,59.89,59.89,0,0,0,3.384-10.208c.087-.417.156-.821.218-1.244l3.036.4,10.364-44.851s2.837-24.31,1.449-35.29c-.056-.454-.118-.871-.193-1.275l.622.056s2.115-5.418,1.481-28.578,4.23-30.481,4.23-30.481c2.625-8.323,5.524-11.11,7.216-12.043h0a3.055,3.055,0,0,1,1.449-.473l7.844,8.976h0l1.443,1.655a.531.531,0,0,0,0-.1l.622.728a6.7,6.7,0,0,1-.05-1.113c4.186,2.432,13.86,8.118,19.632,12.2,7.527,5.319,9.592,4.7,16.174,4.143,3.994-.33,9.393-2.569,13.014-4.274l.33-.156a15.888,15.888,0,0,0,3.061,1.244s10.625,9,11.651-7.427S554.408,220.239,553.748,221.909ZM281.994,409.865a15.365,15.365,0,0,1-3.11-1.313ZM265.36,232.03l.037,2.333-.162.075C265.285,233.616,265.322,232.807,265.36,232.03ZM431.538,440.247v.908A.666.666,0,0,1,431.538,440.247Z" transform="translate(-59.239 -41.485)" fill="url(#linear-gradient)"/>
      <rect id="Rectangle_5" data-name="Rectangle 5" width="18.04" height="18.973" transform="translate(388.174 125.427)" fill="#ff7590"/>
      <path id="Path_103" data-name="Path 103" d="M425.491,385.984c-1.586,7.931-3.938,14.1-8.292,17.729s-10.469,13.374-10.469,13.374c-.106,12.958-3.527,16.9-3.527,16.9l-3.527.933h-8.709a43.1,43.1,0,0,1-1.866-6.942c-.106-.865.51-2.314,1.369-3.869a48.472,48.472,0,0,0,5.692-18.432l.4-3.826c-.734-23.744,8.709-31.452,12.671-33.647a3.882,3.882,0,0,0,1.972-3.011h0l.7-6.787,23.427,1.151s-.5,2.065.392,6.843c.18.989.423,2.09.746,3.316C438.343,376.858,425.591,385.461,425.491,385.984Z" transform="translate(-59.239 -41.485)" fill="#8e5362"/>
      <path id="Path_104" data-name="Path 104" d="M465.216,369.586a60.393,60.393,0,0,1-3.316,10.146,26.053,26.053,0,0,0-1.991,9.231q0,.159,0,.317a80.351,80.351,0,0,1-5.767,27.408c-3.44,8.609-8,19.813-9.368,22.17-2.277,3.938-.933,10.575-.933,10.575l-13.188-.933.23-22.189c-1.375-15.844,3.689-30.481,6.432-37.094a24.31,24.31,0,0,0,1.866-8.329l.622-14.718.193-4.354s23.315-3.316,25.281,1.972C465.82,365.188,465.689,367.272,465.216,369.586Z" transform="translate(-59.239 -41.485)" fill="#8e5362"/>
      <path id="Path_107" data-name="Path 107" d="M478.572,324.188l-10.158,44.583-30.064-4.043V349.382l-2.6,15.769-36.08-1.767,1.866-34.525a128.053,128.053,0,0,0,4.043-21.044c.7-7.8,4.4-27.041,6.183-36.08.622-2.98.97-4.858.97-4.858s61.8,12.852,65.839,17.517c.69.8,1.145,2.488,1.424,4.734C481.352,300.027,478.572,324.188,478.572,324.188Z" transform="translate(-59.239 -41.485)" fill="#bdd2e8"/>
      <path id="Path_108" data-name="Path 108" d="M406.413,327.093s24.323-12.752,30.251-10.059Z" transform="translate(-59.239 -41.485)" opacity="0.1"/>
      <path id="Path_109" data-name="Path 109" d="M419.681,285.415S439.9,300.761,440.52,304.9Z" transform="translate(-59.239 -41.485)" opacity="0.1"/>
      <path id="Path_110" data-name="Path 110" d="M414.188,338.29s14.618-.622,19.284,3.11Z" transform="translate(-59.239 -41.485)" opacity="0.1"/>
      <path id="Path_111" data-name="Path 111" d="M440.52,321.88s6.948,22.743,3.938,28.963-6.115-1.456-6.115-1.456Z" transform="translate(-59.239 -41.485)" opacity="0.1"/>
      <path id="Path_112" data-name="Path 112" d="M430.76,440.421s-6.843,1.039-5.6,17.623,3.11,19.5,5.6,19.7,14.618,3.216,14-2.905-1.244-19.694-.417-21.772,2.258-7.546-.877-8.9l-.678,3.2s-6.637-6.121-10.575-1.661a17.232,17.232,0,0,0-.815-3.191C431,441.547,430.144,441.043,430.76,440.421Z" transform="translate(-59.239 -41.485)" fill="#494457"/>
      <path id="Path_113" data-name="Path 113" d="M555.988,236.894s-1.568.877-3.869,1.972c-3.552,1.692-8.846,3.919-12.765,4.249-6.457.547-8.479,1.169-15.863-4.118-5.667-4.056-15.153-9.71-19.284-12.124l-1.8-1.064-.18-.106v-.075l3.428-9.418,12.13-6.451,3.011,2.582,8.964,7.682s1.4,2.252,3.658,2.1,14.307.852,14.307.852l2.277.373,4.8.8Z" transform="translate(-59.239 -41.485)" fill="#8e5362"/>
      <path id="Path_114" data-name="Path 114" d="M555.988,236.894s-1.568.877-3.869,1.972c-2.432-1.244-5.456-3.577-4.292-7.415,1.051-3.452,1.337-6.146,2.2-8.087l4.8.8Z" transform="translate(-59.239 -41.485)" opacity="0.1"/>
      <path id="Path_115" data-name="Path 115" d="M554.358,220.1s13.53-3.888,12.522,12.441-11.434,7.39-11.434,7.39-8.864-2.333-7-8.479S549.773,221.579,554.358,220.1Z" transform="translate(-59.239 -41.485)" fill="#8e5362"/>
      <path id="Path_116" data-name="Path 116" d="M414.083,167.223l-14.1,5.922-.218.093-.155-.075-.877-.442c-3.645-1.816-16.174-8.031-24.055-11.72-9.331-4.354-7.882-8.709-7.882-8.709l-1.344-45.616-2.389-8.193s-1.686-27.769,11.819-34.73,4.771,40.223,4.771,40.223l1.045,9.8a104.993,104.993,0,0,0,3.7,18.519,28.762,28.762,0,0,1,1.095,6.1c.417,6.631,3.527,6.19,3.527,6.19a43.3,43.3,0,0,1,14.021,4.765,35.069,35.069,0,0,1,4.641,2.936Z" transform="translate(-59.239 -41.485)" fill="#8e5362"/>
      <path id="Path_117" data-name="Path 117" d="M464.264,189l-12.031-1.244a46.224,46.224,0,0,0,5.107-10.407,17.676,17.676,0,0,0,.529-2.146,7.16,7.16,0,0,0-.659-5.281c-3.521-5.182,20.945-12.441,20.945-12.441a59.757,59.757,0,0,0-.267,8.634,43.676,43.676,0,0,0,.622,5.978c.74,4.025,2.215,7.813,5.026,9.754C491.218,187.129,464.264,189,464.264,189Z" transform="translate(-59.239 -41.485)" fill="#8e5362"/>
      <path id="Path_118" data-name="Path 118" d="M464.264,189l-12.031-1.244a46.224,46.224,0,0,0,5.107-10.407c1.387,1.972,1.866,1.928,3.813,2.32,0,0,12.143,1.8,17.368-7.577.74,4.025,2.215,7.813,5.026,9.754C491.218,187.129,464.264,189,464.264,189Z" transform="translate(-59.239 -41.485)" opacity="0.1"/>
      <path id="Path_119" data-name="Path 119" d="M504.232,226.873a6.664,6.664,0,0,0,.05,1.107l-1.866-2.171-.156-.18,3.428-9.418,12.13-6.451,3.011,2.582C516.518,213.99,504.425,219.221,504.232,226.873Z" transform="translate(-59.239 -41.485)" opacity="0.1"/>
      <path id="Path_122" data-name="Path 122" d="M461.154,180.286s12.273,1.816,17.461-7.72c0,0,8.665,7.116,13.847,7.726S521.7,211.184,521.7,211.184s-19.284,6.221-18.04,16.174l-9.126-10.575s-4.56-.212-8.5,12.441c0,0-4.771,7.253-4.149,30.27s-1.449,28.41-1.449,28.41-60.552-5.182-65.939-13.685-6.221-4.354-6.221-4.354-.834-16.174,4.765-29.237,4.354-50.592,4.354-50.592.622-18.457-17.623-16.8c0,0,7.67-17.835,4.149-24.677,0,0,10.494,2.849,17.971,2.936a30.742,30.742,0,0,1,13.238,3.11,14.683,14.683,0,0,1,5.493,4.143c3.521,4.977,9.331,2.7,9.331,2.7a94.177,94.177,0,0,0,5.412,13.269c.243.454.485.9.734,1.331a20.4,20.4,0,0,0,1.107,1.754C458.7,179.938,459.126,179.882,461.154,180.286Z" transform="translate(-59.239 -41.485)" fill="#ff7590"/>
      <path id="Path_123" data-name="Path 123" d="M477.888,166.091a21.3,21.3,0,0,1-2.2,2.644,21.7,21.7,0,0,1-15.552,6.557,22.336,22.336,0,0,1-2.246-.112,7.16,7.16,0,0,0-.659-5.281c-3.521-5.182,20.945-12.441,20.945-12.441A59.761,59.761,0,0,0,477.888,166.091Z" transform="translate(-59.239 -41.485)" opacity="0.1"/>
      <path id="Path_124" data-name="Path 124" d="M481.887,152.916a21.691,21.691,0,1,1-6.353-15.419A21.772,21.772,0,0,1,481.887,152.916Z" transform="translate(-59.239 -41.485)" fill="#8e5362"/>
      <path id="Path_125" data-name="Path 125" d="M492.674,202.681l.448,14.569s6.5-5.238,6.706-10.214S492.674,202.681,492.674,202.681Z" transform="translate(-59.239 -41.485)" opacity="0.1"/>
      <path id="Path_126" data-name="Path 126" d="M440.209,217.249s17.107,23.483,27.06,25.865S443.942,224.863,440.209,217.249Z" transform="translate(-59.239 -41.485)" opacity="0.1"/>
      <path id="Path_127" data-name="Path 127" d="M458.355,219.694s9.536,10.774,16.379,12.118Z" transform="translate(-59.239 -41.485)" opacity="0.1"/>
      <path id="Path_128" data-name="Path 128" d="M424.763,246.847s17.418,17.107,27.371,18.146Z" transform="translate(-59.239 -41.485)" opacity="0.1"/>
      <path id="Path_129" data-name="Path 129" d="M481.887,152.916a21.691,21.691,0,0,1-6.221,15.216l-2.389-1.487a6.607,6.607,0,0,1-2.327-2.022c-.79-1.319-.56-2.973-.5-4.51.131-3.253-.765-6.774-3.309-8.808-4.124-3.3-10.737-1.474-14.93-4.715a14.72,14.72,0,0,1-2.644-2.942l-3.931-5.269c-.236-.311-.523-.622-.827-.989A21.772,21.772,0,0,1,481.85,152.94Z" transform="translate(-59.239 -41.485)" opacity="0.1"/>
      <path id="Path_130" data-name="Path 130" d="M447,125.035c1.947-1.487,4.323-2.271,6.513-3.365s4.124-2.488,6.314-3.421a9.945,9.945,0,0,1,6.992-.7c4.871,1.673,6.712,8.479,11.72,9.673.846.2,1.717.218,2.569.348a11.7,11.7,0,0,1,7.869,5.505,18.326,18.326,0,0,1,2.488,9.462,15.159,15.159,0,0,1-.79,5.431c-1.48,4.062-5.194,6.843-7.7,10.357a19.7,19.7,0,0,0-3.6,11.5l-6.071-3.776a6.544,6.544,0,0,1-2.326-2.022c-.79-1.319-.56-2.973-.5-4.51.131-3.253-.765-6.774-3.3-8.808-4.131-3.3-10.743-1.474-14.93-4.715a14.719,14.719,0,0,1-2.644-2.942l-3.931-5.269c-.852-1.145-2.488-2.569-2.861-3.963C441.976,130.82,444.806,126.72,447,125.035Z" transform="translate(-59.239 -41.485)" fill="#362133"/>
      <path id="Path_131" data-name="Path 131" d="M473.975,165.344a6.544,6.544,0,0,1-2.326-2.022c-.79-1.319-.56-2.973-.5-4.51.131-3.253-.765-6.774-3.309-8.808-4.124-3.3-10.737-1.474-14.93-4.715a14.718,14.718,0,0,1-2.644-2.942l-3.931-5.269c-.858-1.145-2.488-2.569-2.861-3.963-.678-2.4,1.039-5.53,2.874-7.533-2.059,1.9-4.317,5.518-3.552,8.211.4,1.393,2.009,2.818,2.861,3.963l3.931,5.269a14.718,14.718,0,0,0,2.644,2.942c4.174,3.241,10.787,1.412,14.93,4.715,2.538,2.034,3.434,5.555,3.3,8.808-.062,1.536-.292,3.191.5,4.51a6.544,6.544,0,0,0,2.327,2.022l6.071,3.776a10.309,10.309,0,0,1,.037-1.076Z" transform="translate(-59.239 -41.485)" opacity="0.1"/>
      <path id="Path_132" data-name="Path 132" d="M390.077,424.832s-6.059,1.244-4.815,17.859,3.11,19.5,5.6,19.7,14.618,3.216,14-2.905-1.244-19.694-.417-21.772,4.112-7.658.977-9.007l-2.532,3.309s-6.637-6.121-10.575-1.661C392.31,430.356,388.628,426.281,390.077,424.832Z" transform="translate(-59.239 -41.485)" fill="#494457"/>
      <path id="Path_133" data-name="Path 133" d="M393.909,435.133c1.313.622,2.538,1.381,3.844,2a8.628,8.628,0,0,0,4.174.983,2.911,2.911,0,0,0,1.7-.591" transform="translate(-59.239 -41.485)" opacity="0.1"/>
      <path id="Path_134" data-name="Path 134" d="M433.783,451.381a21.12,21.12,0,0,0,2.258,2.221,7.881,7.881,0,0,0,4.354.9,1.766,1.766,0,0,0,.747-.093,1.816,1.816,0,0,0,.666-.622l.815-1.051" transform="translate(-59.239 -41.485)" opacity="0.1"/>
      <path id="Path_135" data-name="Path 135" d="M331.56,175.515s-2.8-26.537,8.087-20.006,3.39,18.139,3.39,18.139l-2.557,8.193Z" transform="translate(-59.239 -41.485)" fill="#ffc1c7"/>
      <path id="Path_136" data-name="Path 136" d="M348.977,90.709,355.2,84.6s11.925-34.319,23.744-25.5-14.979,31.1-14.979,31.1l-7.1,8.292Z" transform="translate(-59.239 -41.485)" fill="#ffc1c7"/>
      <path id="Path_137" data-name="Path 137" d="M257.945,226.431l-.311,7.048s5.7,9.953,8.087,10.681,2.177-21.051,2.177-21.051Z" transform="translate(-59.239 -41.485)" fill="#ff5374"/>
      <path id="Path_138" data-name="Path 138" d="M257.945,226.431l-.311,7.048s5.7,9.953,8.087,10.681,2.177-21.051,2.177-21.051Z" transform="translate(-59.239 -41.485)" opacity="0.1"/>
      <path id="Path_139" data-name="Path 139" d="M208.242,177.207l.423,25.977h28.92l-2.177-15.135Z" fill="#ffc1c7"/>
      <path id="Path_140" data-name="Path 140" d="M274.224,283.549l1.35,8.292,16.9,37.535s7.67,11.819,1.449,21.772-12.647,25.5-13.685,34.935-9.225,18.662-9.225,18.662l17.835,7.57s1.244-14.824,6.221-21.772,20.939-37.529,20.939-37.529,5.082-4.566,3.944-18.146-1.039-23.122-1.039-23.122l-1.76-21.666Z" transform="translate(-59.239 -41.485)" fill="#575988"/>
      <path id="Path_141" data-name="Path 141" d="M274.224,283.549l1.35,8.292,16.9,37.535s7.67,11.819,1.449,21.772-12.647,25.5-13.685,34.935-9.225,18.662-9.225,18.662l17.835,7.57s1.244-14.824,6.221-21.772,20.939-37.529,20.939-37.529,5.082-4.566,3.944-18.146-1.039-23.122-1.039-23.122l-1.76-21.666Z" transform="translate(-59.239 -41.485)" opacity="0.1"/>
      <path id="Path_142" data-name="Path 142" d="M272.563,403.607s-19.079,5.8-12.752,15.346,26.854,27.682,35.147,27.06,4.977-6.743,4.977-6.743l-6.948-6.843s-1.244-14.513-.722-18.761-5.91-6.221-6.743-3.732S272.563,403.607,272.563,403.607Z" transform="translate(-59.239 -41.485)" fill="#c4747b"/>
      <path id="Path_143" data-name="Path 143" d="M284.588,233.634l-15.122,1.673a5.424,5.424,0,0,0-4.827,5.53c.162,6.046.267,15.664-.579,17.418-1.244,2.594-5.076,21.051,11.508,33.591l22.5,7.154-36.08,2.594,1.145,20.012,5.6-3.11,68.427,3.11s19.39-1.972,6.221-23.016-41.156-41.678-41.156-41.678l-.311-16.385-2.078-4.765Z" transform="translate(-59.239 -41.485)" fill="#575988"/>
      <path id="Path_144" data-name="Path 144" d="M303.355,298.684a19.433,19.433,0,0,1,15.552,0Z" transform="translate(-59.239 -41.485)" opacity="0.1"/>
      <path id="Path_145" data-name="Path 145" d="M263.755,301.483s-22.289-3.21-22.394,1.039,3.11,45.616,13.791,42.817,6.115-16.485,6.115-16.485l7.987-7.67s.827-4.249-4.46-3.838Z" transform="translate(-59.239 -41.485)" fill="#c4747b"/>
      <path id="Path_146" data-name="Path 146" d="M300.662,185.468l8.808,10.059s3.838,4.771,8.4-2.488,13.063-20.217,13.063-20.217,9.437,8.292,11.925,6.637-22.911,34.531-22.911,34.531-8.087,11.919-20.118-2.177l-3.521-1.661Z" transform="translate(-59.239 -41.485)" fill="#ff5374"/>
      <path id="Path_147" data-name="Path 147" d="M300.662,185.468l8.808,10.059s3.838,4.771,8.4-2.488,13.063-20.217,13.063-20.217,9.437,8.292,11.925,6.637-22.911,34.531-22.911,34.531-8.087,11.919-20.118-2.177l-3.521-1.661Z" transform="translate(-59.239 -41.485)" opacity="0.1"/>
      <circle id="Ellipse_1" data-name="Ellipse 1" cx="18.351" cy="18.351" r="18.351" transform="translate(196.124 66.405)" fill="#ffc1c7"/>
      <path id="Path_149" data-name="Path 149" d="M273.708,134.876s-15.769,7.465-13.9,20.528a288.845,288.845,0,0,1,2.177,29.548s7.16,10.575-2.333,30.792c0,0-6.065,10.264-2.022,17.729,0,0,4.485-11.819,16.08-3.11s30.263,12.752,30.263,12.752-9.642-42.3-3.732-48.21c0,0,10.264-15.241.933-24.883s-4.665-18.662-4.665-18.662l29.965-16.068s6.32.1,14.824-13.169a228.5,228.5,0,0,1,18.146-24.26S353.008,88.221,347,87.493c0,0-2.389,2.488-4.043,9.231-.883,3.577-6.886,9.555-12.317,14.376-3.857,3.421-7.577,6.973-11.29,10.575-2.75,2.644-8.871,6.426-22.22,8.566C275.157,133.744,273.708,134.876,273.708,134.876Z" transform="translate(-59.239 -41.485)" fill="#ff5374"/>
      <path id="Path_150" data-name="Path 150" d="M287.287,213.05s12.23,18.04,12.541,21.15C299.834,234.2,297.968,214.811,287.287,213.05Z" transform="translate(-59.239 -41.485)" opacity="0.1"/>
      <path id="Path_151" data-name="Path 151" d="M271.22,152.294s8.528,10.264,20.852,1.661A26.431,26.431,0,0,1,271.22,152.294Z" transform="translate(-59.239 -41.485)" opacity="0.1"/>
      <path id="Path_153" data-name="Path 153" d="M276.588,107.051a5.5,5.5,0,0,0-1.344-2.488c-2.812-3.527-5.866-7.147-10.053-8.821a13.9,13.9,0,0,0-15.856,4.516c-1.505,2.028-2.4,4.442-3.7,6.613a29.333,29.333,0,0,1-10.109,9.567c-2.407,1.474-4.945,2.75-7.216,4.423-8.255,6.078-12.068,17.312-9.99,27.371.914,4.4,2.849,8.746,2.327,13.219-.4,3.471-2.252,6.581-4.124,9.53s-3.869,5.934-4.616,9.331.037,7.421,2.855,9.48a23.73,23.73,0,0,1,3.179,2.152,10.333,10.333,0,0,1,1.462,2.326,22.873,22.873,0,0,0,14.2,11.2c2.675.7,6.264.448,7.241-2.14a5.6,5.6,0,0,1,.5-1.313c.883-1.244,2.83-.547,4.2.168a26,26,0,0,0,10.034,2.88,8.367,8.367,0,0,0,4.112-.491,7.6,7.6,0,0,0,2.768-2.395c3.272-4.261,4.211-9.829,4.771-15.172a35.442,35.442,0,0,0-.044-10.451c-1.057-5.511-4.41-10.662-3.913-16.248.529-5.972,5.375-10.855,6.115-16.8a12.808,12.808,0,0,0-2.183-8.827,12.622,12.622,0,0,1-1.661-2.6,2.582,2.582,0,0,1,.5-2.855,4.355,4.355,0,0,1,1.294-.622c4-1.536,6.134-5.543,6.42-9.642a21.423,21.423,0,0,1,.429-4.5C274.871,112.114,276.943,109.552,276.588,107.051Z" transform="translate(-59.239 -41.485)" fill="#bb7684"/>
      <path id="Path_156" data-name="Path 156" d="M253.068,326.583a8.4,8.4,0,0,0,8.6,2.376" transform="translate(-59.239 -41.485)" opacity="0.1"/>
      <path id="Path_157" data-name="Path 157" d="M292.93,432.956a5.281,5.281,0,0,1-4.292,1.082" transform="translate(-59.239 -41.485)" opacity="0.1"/>
      <ellipse id="Ellipse_3" data-name="Ellipse 3" cx="16.752" cy="2.83" rx="16.752" ry="2.83" transform="translate(507.293 461.478)" fill="#168c86"/>
      <ellipse id="Ellipse_4" data-name="Ellipse 4" cx="16.752" cy="2.83" rx="16.752" ry="2.83" transform="translate(507.293 406.997)" fill="#6c63ff" opacity="0.1"/>
      <ellipse id="Ellipse_6" data-name="Ellipse 6" cx="25.013" cy="4.23" rx="25.013" ry="4.23" transform="translate(552.013 430.001)" fill="#168c86"/>
      <path id="Path_158" data-name="Path 158" d="M646.6,468.8a7.3,7.3,0,0,0,2.389-3.6,3.206,3.206,0,0,0-1.667-3.664c-1.53-.585-3.166.473-4.4,1.549s-2.662,2.289-4.286,2.065a6.513,6.513,0,0,0,2.016-6.1,2.557,2.557,0,0,0-.56-1.244c-.852-.908-2.389-.516-3.409.2-3.235,2.277-4.137,6.669-4.155,10.625a19.971,19.971,0,0,1-.056-4.354c-.006-1.443-.411-3.11-1.642-3.875a5.019,5.019,0,0,0-2.488-.622c-1.456-.05-3.073.093-4.068,1.157-1.244,1.325-.914,3.54.162,4.977a16.263,16.263,0,0,0,4.205,3.372,9.331,9.331,0,0,1,3.011,2.868,3.153,3.153,0,0,1,.224.51h9.113A25.336,25.336,0,0,0,646.6,468.8Z" transform="translate(-59.239 -41.485)" fill="#168c86"/>
      <path id="Path_159" data-name="Path 159" d="M593.629,499.025a7.284,7.284,0,0,0,2.383-3.6,3.216,3.216,0,0,0-1.667-3.664c-1.53-.585-3.166.473-4.4,1.549s-2.662,2.289-4.286,2.065a6.513,6.513,0,0,0,2.016-6.1,2.488,2.488,0,0,0-.56-1.244c-.846-.908-2.389-.516-3.4.2-3.235,2.277-4.137,6.669-4.155,10.625a19.589,19.589,0,0,1-.062-4.354c-.006-1.443-.411-3.11-1.642-3.875a4.977,4.977,0,0,0-2.488-.591c-1.456-.05-3.073.093-4.068,1.157-1.244,1.325-.914,3.54.162,4.977a16.191,16.191,0,0,0,4.211,3.372,9.332,9.332,0,0,1,3,2.868,3.164,3.164,0,0,1,.224.51h9.113a25.507,25.507,0,0,0,5.623-3.888Z" transform="translate(-59.239 -41.485)" fill="#168c86"/>
      <path id="Path_160" data-name="Path 160" d="M191.123,442.909s-8.74-29.679,1.642-51.519a46.879,46.879,0,0,0,3.807-29.424,78.726,78.726,0,0,0-4.162-13.8" transform="translate(-59.239 -41.485)" fill="none" stroke="#535461" stroke-miterlimit="10" stroke-width="1.244"/>
      <path id="Path_161" data-name="Path 161" d="M198.849,334.359c0,3.639-6.588,14.183-6.588,14.183S185.68,338,185.68,334.359a6.588,6.588,0,1,1,13.169,0Z" transform="translate(-59.239 -41.485)" fill="#19998b"/>
      <path id="Path_162" data-name="Path 162" d="M209.735,354.508c-1.978,3.048-13.238,8.323-13.238,8.323s.205-12.441,2.183-15.483a6.588,6.588,0,0,1,11.054,7.16Z" transform="translate(-59.239 -41.485)" fill="#19998b"/>
      <path id="Path_163" data-name="Path 163" d="M209.262,388.933c-3.247,1.642-15.632.51-15.632.51s6.451-10.631,9.7-12.267a6.588,6.588,0,0,1,5.934,11.757Z" transform="translate(-59.239 -41.485)" fill="#19998b"/>
      <path id="Path_164" data-name="Path 164" d="M203.035,414.916c-2.924,2.159-15.321,3.11-15.321,3.11s4.566-11.57,7.465-13.735a6.588,6.588,0,0,1,7.832,10.575Z" transform="translate(-59.239 -41.485)" fill="#19998b"/>
      <path id="Path_165" data-name="Path 165" d="M182.669,363.54c2.613,2.532,14.762,5.157,14.762,5.157s-2.973-12.074-5.6-14.606a6.588,6.588,0,0,0-9.175,9.449Z" transform="translate(-59.239 -41.485)" fill="#19998b"/>
      <path id="Path_166" data-name="Path 166" d="M175.776,394c3.247,1.636,15.626.5,15.626.5s-6.451-10.631-9.7-12.267A6.587,6.587,0,1,0,175.776,394Z" transform="translate(-59.239 -41.485)" fill="#19998b"/>
      <path id="Path_167" data-name="Path 167" d="M173.133,424.527c2.924,2.165,15.321,3.11,15.321,3.11s-4.566-11.57-7.465-13.729a6.588,6.588,0,0,0-7.832,10.575Z" transform="translate(-59.239 -41.485)" fill="#19998b"/>
      <path id="Path_168" data-name="Path 168" d="M170.445,441.043s10.643-2.115,13.486-4.933,15.608-7.745,17.026-4.224,19.16,15.5,7.1,17.611-28.385,2.818-31.93,1.412S170.445,441.043,170.445,441.043Z" transform="translate(-59.239 -41.485)" fill="#a8a8a8"/>
      <path id="Path_169" data-name="Path 169" d="M208.074,448.172c-12.062,2.115-28.385,2.818-31.931,1.406-2.706-1.07-4.585-6.221-5.325-8.628l-.373.093s2.127,8.454,5.679,9.866,19.869.7,31.931-1.412c3.484-.622,4.479-2.04,4.106-3.857C211.881,446.8,210.668,447.717,208.074,448.172Z" transform="translate(-59.239 -41.485)" opacity="0.2"/>
      <path id="Path_170" data-name="Path 170" d="M586.711,410.506s3.421,4.473-1.574,11.2-9.113,12.441-7.465,16.653c0,0,7.539-12.535,13.685-12.709S593.448,418.026,586.711,410.506Z" transform="translate(-59.239 -41.485)" fill="#168c86"/>
      <path id="Path_171" data-name="Path 171" d="M586.711,410.506a5.6,5.6,0,0,1,.7,1.406c5.984,7.029,9.169,13.592,3.415,13.754-5.356.156-11.782,9.735-13.325,12.155a5.741,5.741,0,0,0,.18.554s7.539-12.535,13.685-12.709S593.448,418.026,586.711,410.506Z" transform="translate(-59.239 -41.485)" opacity="0.1"/>
      <path id="Path_172" data-name="Path 172" d="M593.069,416.2c0,1.574-.18,2.849-.4,2.849s-.392-1.244-.392-2.849.218-.834.435-.834S593.069,414.63,593.069,416.2Z" transform="translate(-59.239 -41.485)" fill="#ffd037"/>
      <path id="Path_173" data-name="Path 173" d="M595.246,418.082c-1.381.753-2.588,1.207-2.687,1.014s.927-.952,2.308-1.7.84-.205.946,0S596.627,417.33,595.246,418.082Z" transform="translate(-59.239 -41.485)" fill="#ffd037"/>
      <path id="Path_174" data-name="Path 174" d="M568.665,410.506s-3.421,4.473,1.574,11.2,9.113,12.441,7.465,16.653c0,0-7.533-12.535-13.685-12.709S561.916,418.026,568.665,410.506Z" transform="translate(-59.239 -41.485)" fill="#168c86"/>
      <path id="Path_175" data-name="Path 175" d="M568.665,410.506a5.6,5.6,0,0,0-.7,1.406c-5.984,7.029-9.169,13.592-3.415,13.754,5.356.156,11.782,9.735,13.325,12.155a4.443,4.443,0,0,1-.187.554S570.152,425.84,564,425.665,561.916,418.026,568.665,410.506Z" transform="translate(-59.239 -41.485)" opacity="0.1"/>
      <path id="Path_176" data-name="Path 176" d="M562.308,416.2c0,1.574.18,2.849.4,2.849s.392-1.244.392-2.849-.218-.834-.435-.834S562.308,414.63,562.308,416.2Z" transform="translate(-59.239 -41.485)" fill="#ffd037"/>
      <path id="Path_177" data-name="Path 177" d="M560.131,418.082c1.381.753,2.582,1.207,2.687,1.014s-.927-.952-2.308-1.7-.84-.205-.946,0S558.75,417.33,560.131,418.082Z" transform="translate(-59.239 -41.485)" fill="#ffd037"/>
      <path id="Path_178" data-name="Path 178" d="M563.4,437.789s9.555-.3,12.441-2.345,14.7-4.5,15.415-1.244,14.357,16.354,3.571,16.441-25.063-1.68-27.937-3.428S563.4,437.789,563.4,437.789Z" transform="translate(-59.239 -41.485)" fill="#a8a8a8"/>
      <path id="Path_179" data-name="Path 179" d="M595.01,449.528c-10.787.087-25.063-1.68-27.937-3.428-2.19-1.331-3.067-6.115-3.353-8.323H563.4s.622,7.707,3.484,9.455,17.15,3.515,27.937,3.428c3.11,0,4.186-1.132,4.13-2.768C598.512,448.893,597.324,449.509,595.01,449.528Z" transform="translate(-59.239 -41.485)" opacity="0.2"/>
    </g>
  </g>
</svg>
