<?xml version="1.0" encoding="UTF-8" standalone="no"?>
<!DOCTYPE svg PUBLIC "-//W3C//DTD SVG 1.1//EN" "http://www.w3.org/Graphics/SVG/1.1/DTD/svg11.dtd">
<svg width="100%" height="100%" viewBox="0 0 628 468" version="1.1" xmlns="http://www.w3.org/2000/svg" xmlns:xlink="http://www.w3.org/1999/xlink" xml:space="preserve" xmlns:serif="http://www.serif.com/" style="fill-rule:evenodd;clip-rule:evenodd;stroke-miterlimit:10;">
    <g transform="matrix(1,0,0,1,0.000822623,-14.5564)">
        <g transform="matrix(1,0,0,1,-1243,-1863)">
            <g id="undraw_High_five_u364" transform="matrix(1,0,0,1,1243,1877.56)">
                <g id="Path_95" transform="matrix(1,0,0,1,-59.239,-41.485)">
                    <path d="M208.422,439.457C203.134,438.922 197.611,438.35 192.603,439.749C187.595,441.148 183.446,445.236 184.933,449.142C188.255,457.851 207.75,451.786 216.739,457.742C219.949,459.869 221.199,463.216 223.706,465.829C227.762,470.071 234.735,472.05 241.466,473.138C281.9,479.676 327.995,462.849 363.434,479.054C374.911,484.304 383.962,492.654 396.546,496.161C413.217,500.802 431.475,495.844 448.725,492.661C470.238,488.73 492.167,487.58 513.973,489.24C530.103,490.484 551.558,490.901 556.721,479.187C560.043,471.654 553.014,463.268 543.683,459.704C534.352,456.14 523.429,456.252 513.009,456.594C492.898,457.316 472.78,458.771 452.669,458.062C413.778,456.681 377.039,441.262 339.169,440.756C295.063,440.222 252.732,443.923 208.422,439.457Z" style="fill:rgb(10,36,99);fill-opacity:0.1;fill-rule:nonzero;"/>
                </g>
                <g id="Path_96" transform="matrix(1,0,0,1,-59.239,-41.485)">
                    <path d="M167.534,244.471C161.313,250.76 160.934,260.402 160.934,260.402C160.934,260.402 170.57,259.855 176.766,253.559C182.962,247.263 183.372,237.628 183.372,237.628C183.372,237.628 173.73,238.194 167.534,244.471Z" style="fill:rgb(108,99,255);fill-opacity:0.1;fill-rule:nonzero;"/>
                </g>
                <g id="Path_97" transform="matrix(1,0,0,1,-59.239,-41.485)">
                    <path d="M192.572,89.1C194.772,97.653 202.824,102.972 202.824,102.972C202.824,102.972 207.324,94.431 205.124,85.878C202.924,77.325 194.872,72.012 194.872,72.012C194.872,72.012 190.351,80.557 192.572,89.1Z" style="fill:rgb(108,99,255);fill-opacity:0.1;fill-rule:nonzero;"/>
                </g>
                <g id="Path_98" transform="matrix(1,0,0,1,-59.239,-41.485)">
                    <path d="M556.38,112.631C550.159,118.92 549.774,128.562 549.774,128.562C549.774,128.562 559.416,128.015 565.612,121.719C571.808,115.423 572.212,105.782 572.212,105.782C572.212,105.782 562.575,106.373 556.38,112.631Z" style="fill:rgb(108,99,255);fill-opacity:0.1;fill-rule:nonzero;"/>
                </g>
                <g id="Path_99" transform="matrix(1,0,0,1,-59.239,-41.485)">
                    <path d="M366.781,200.765C366.059,209.565 371.925,217.225 371.925,217.225C371.925,217.225 378.973,210.625 379.695,201.825C380.417,193.025 374.551,185.378 374.551,185.378C374.551,185.378 367.5,191.962 366.781,200.765Z" style="fill:rgb(108,99,255);fill-opacity:0.1;fill-rule:nonzero;"/>
                </g>
                <g id="Path_100" transform="matrix(1,0,0,1,-59.239,-41.485)">
                    <path d="M570.855,324.126C570.133,332.926 575.999,340.586 575.999,340.586C575.999,340.586 583.047,333.986 583.769,325.186C584.491,316.386 578.624,308.726 578.624,308.726C578.624,308.726 571.577,315.33 570.855,324.126Z" style="fill:rgb(108,99,255);fill-opacity:0.1;fill-rule:nonzero;"/>
                </g>
                <g id="Path_101" transform="matrix(1,0,0,1,-59.239,-41.485)">
                    <path d="M424.11,101.44C383.85,100.227 345.51,88.999 308.891,76.682C272.272,64.365 236.011,50.748 196.715,44.229C171.441,40.036 142.533,39.445 122.173,51.171C102.572,62.449 96.239,81.926 92.837,100C90.274,113.592 88.769,127.9 95.786,140.627C100.663,149.467 109.31,156.894 115.294,165.354C136.114,194.809 121.394,231.125 98.84,259.908C88.265,273.401 75.979,286.265 67.811,300.628C59.643,314.991 55.867,331.439 63.011,346.082C70.09,360.601 86.967,371.506 105.249,379.176C142.38,394.728 186.117,399.213 228.797,401.738C323.245,407.338 418.19,404.91 512.887,402.484C547.934,401.584 583.13,400.684 617.605,395.99C636.752,393.39 656.515,389.259 670.418,379.281C688.06,366.616 692.433,345.173 680.607,329.292C660.776,302.661 605.959,296.043 592.081,267.459C584.454,251.727 592.286,234.204 603.381,219.61C627.169,188.31 667.037,160.844 669.133,125.056C670.576,100.485 651.41,75.876 621.775,64.249C590.715,52.057 547.637,53.593 524.733,73.767C501.128,94.51 459.661,102.5 424.11,101.44Z" style="fill:rgb(23,140,134);fill-rule:nonzero;"/>
                </g>
                <g id="Path_102" transform="matrix(1,0,0,1,-59.239,-41.485)">
                    <path d="M553.748,221.909L553.126,221.809L550.806,221.436C550.806,221.436 538.514,220.422 536.219,220.578C533.924,220.734 532.487,218.469 532.487,218.469L523.349,210.737L522.64,210.115C523.629,209.742 524.24,209.549 524.24,209.549C524.24,209.549 499.718,179.068 494.431,178.477C489.144,177.886 480.403,170.77 480.316,170.701L480.223,170.216C480.03,169.19 479.887,168.151 479.781,167.106L481.081,167.906C481.075,167.545 481.087,167.184 481.118,166.824C481.312,163.062 482.582,159.435 484.776,156.373C487.333,152.827 491.115,150.04 492.626,145.953C493.228,144.195 493.499,142.341 493.426,140.485C493.465,137.141 492.582,133.85 490.876,130.974C489.117,128.067 486.193,126.05 482.851,125.438C481.98,125.301 481.091,125.282 480.232,125.083C475.125,123.883 473.246,117.034 468.282,115.354C465.903,114.707 463.367,114.956 461.159,116.054C458.926,117.024 456.904,118.418 454.721,119.494C452.538,120.57 450.062,121.36 448.077,122.884C447.859,123.05 447.652,123.229 447.455,123.419L447.063,123.798C446.244,124.629 445.532,125.559 444.942,126.566L444.849,126.722C444.787,126.828 444.731,126.94 444.675,127.052C444.619,127.164 444.582,127.226 444.544,127.313C444.506,127.4 444.444,127.513 444.401,127.613L444.27,127.913L444.158,128.199C444.121,128.305 444.077,128.411 444.046,128.522C444.015,128.633 443.984,128.702 443.959,128.796L443.866,129.126L443.81,129.393C443.798,129.508 443.778,129.623 443.748,129.735C443.739,129.818 443.739,129.901 443.748,129.984L443.748,131.135C443.772,131.318 443.81,131.499 443.86,131.676C444.434,132.928 445.24,134.059 446.236,135.01C446.136,135.103 446.036,135.19 445.936,135.29C441.695,139.377 439.297,145.02 439.299,150.91C439.3,152.206 439.419,153.499 439.654,154.773C438.523,153.918 437.308,153.18 436.027,152.573C431.814,150.553 427.206,149.491 422.534,149.463C414.914,149.376 404.208,146.514 404.208,146.514C404.481,147.036 404.69,147.59 404.83,148.162C404.363,147.895 403.86,147.608 403.306,147.31C398.843,144.914 394.005,143.294 388.999,142.52C383.993,141.746 385.826,142.962 385.399,136.299C385.254,134.217 384.878,132.158 384.279,130.159C382.458,124.066 381.196,117.819 380.509,111.497L379.445,101.718C379.445,101.718 384.235,76.218 381.355,65.34C382.282,61.931 381.755,58.808 378.705,56.563C366.656,47.692 354.505,82.217 354.505,82.217L350,86.6C348.842,85.845 347.535,85.346 346.168,85.138C344.801,84.93 343.736,87.626 342.044,94.419C341.144,98.019 335.027,104.036 329.491,108.882C325.56,112.322 321.765,115.899 317.977,119.488C315.177,122.15 308.938,125.957 295.328,128.11C293.194,128.446 291.254,128.763 289.481,129.056C289.934,127.449 290.164,125.787 290.165,124.117C290.123,115.489 284.059,107.977 275.634,106.117C275.696,105.682 275.696,105.239 275.634,104.804C275.404,103.867 274.93,103.009 274.259,102.316C271.391,98.77 268.281,95.125 264.014,93.445C262.254,92.76 260.369,92.457 258.484,92.555L256.966,92.555C252.898,92.78 249.118,94.75 246.602,97.955C245.072,100.002 244.151,102.428 242.832,104.611C240.221,108.602 236.685,111.903 232.524,114.234C230.067,115.721 227.485,117.002 225.165,118.688C216.748,124.803 212.865,136.106 214.982,146.208C215.915,150.643 217.887,155.008 217.358,159.508C216.941,162.998 215.058,166.133 213.147,169.094C211.236,172.055 209.203,175.066 208.447,178.494C207.691,181.922 208.484,185.959 211.358,188.036C212.498,188.665 213.582,189.389 214.599,190.201C215.199,190.91 215.701,191.697 216.092,192.54C219.174,198.109 224.409,202.176 230.567,203.787C231.534,204.034 232.531,204.143 233.528,204.11L233.828,204.11C236.111,204.253 238.45,203.643 239.215,201.622C239.331,201.162 239.504,200.719 239.731,200.303C239.945,199.993 240.265,199.772 240.631,199.681C241.367,199.85 242.077,200.119 242.74,200.481C245.927,202.134 249.413,203.13 252.992,203.411C253.591,203.459 254.192,203.469 254.792,203.442C256.037,203.558 257.293,203.379 258.456,202.919C259.575,202.351 260.541,201.523 261.274,200.505C261.436,200.3 261.585,200.082 261.741,199.883C260.919,204.851 259.372,209.671 257.15,214.19C254.928,218.709 253.418,220.411 253.685,226.681C253.541,228.965 254.026,231.246 255.085,233.275C256.144,235.304 255.191,233.001 255.408,232.575C256.478,234.367 259.986,240.096 262.288,242.105C262.4,248.021 262.375,255.43 261.635,256.954C260.391,259.56 256.459,278.104 273.367,290.754L277.267,299.295L261.2,300.432C259.576,300.208 238.582,297.384 238.476,301.496C238.37,305.77 241.649,347.386 252.535,344.568C262.681,341.943 259.335,329.806 258.835,328.177L259.196,328.077L258.796,327.965L266.914,320.27C267.067,319.333 266.843,318.374 266.292,317.601L266.373,317.557L285.98,318.434L290.59,328.449C290.59,328.449 298.409,340.343 292.07,350.349C285.731,360.355 279.17,376.009 278.117,385.502C277.252,393.265 271.504,400.892 269.445,403.402C265.769,404.646 251.666,410.183 257.296,418.562C263.741,428.154 284.667,446.412 293.127,445.783C301.587,445.154 298.197,439.003 298.197,439.003L291.124,432.148C291.124,432.148 289.88,417.542 290.384,413.268C290.519,411.235 289.224,409.361 287.274,408.768C287.94,404.009 289.625,394.989 293.246,390.007C298.316,383.015 314.595,352.248 314.595,352.248C314.595,352.248 319.771,347.657 318.607,333.997C318.14,328.486 317.879,323.646 317.73,319.82L336.156,320.647C336.156,320.647 355.919,318.663 342.495,297.488C329.071,276.313 300.537,255.561 300.537,255.561L300.282,242.454C301.576,242.777 302.335,242.939 302.335,242.939C302.335,242.939 302.223,242.466 302.035,241.62L302.335,241.688C302.335,241.688 298.211,223.841 296.942,209.652L298.105,210.187C310.366,224.376 318.633,212.387 318.633,212.387C318.633,212.387 344.533,175.987 341.991,177.651C341.462,177.913 340.849,177.951 340.291,177.757L342.157,171.81C342.157,171.81 349.802,160.128 338.705,153.559C329.648,148.197 329.884,165.005 330.276,171.359L329.828,170.98C329.828,170.98 321.163,184.043 316.51,191.321C311.857,198.599 307.95,193.809 307.95,193.809L302.071,187.184C303.037,184.53 303.511,181.722 303.471,178.898C303.73,174.915 302.284,171.005 299.496,168.149C295.011,163.577 293.696,159.149 293.561,155.739C293.605,153.973 294.005,152.234 294.737,150.626L325.286,134.452C325.286,134.452 331.731,134.552 340.396,121.202C346.012,112.665 352.192,104.514 358.896,96.802C365.6,89.09 358.716,96.541 358.405,96.112C358.716,95.745 358.896,95.546 358.896,95.546C358.896,95.546 358.541,95.03 357.938,94.233L362.647,88.802C362.498,91.256 362.48,93.717 362.591,96.173L365.029,104.415L366.4,150.3C366.4,150.3 364.919,154.654 374.437,159.065C382.486,162.797 395.237,169.018 398.959,170.853C398.822,171.189 398.741,171.369 398.741,171.369L399.848,171.294L400.01,171.369C418.603,169.702 417.969,188.269 417.969,188.269C417.969,188.269 419.213,226.028 413.534,239.169C407.855,252.31 408.669,268.58 408.669,268.58C408.669,268.58 409.235,265.806 412.401,269.432C412.339,269.749 412.27,270.091 412.196,270.446C410.38,279.546 406.596,298.905 405.896,306.756C405.122,313.91 403.742,320.985 401.772,327.906L399.906,362.636L411.794,363.215L411.663,364.459C411.531,365.738 410.777,366.872 409.648,367.488C405.58,369.696 395.963,377.441 396.734,401.341L396.323,405.185C395.666,411.695 393.692,418.005 390.523,423.729C390.249,424.214 390.007,424.681 389.801,425.129C389.832,424.877 389.946,424.643 390.124,424.463C390.302,424.283 383.947,425.744 385.216,442.434C386.485,459.124 388.388,462.041 390.927,462.247C393.466,462.453 405.857,465.482 405.191,459.33C404.525,453.178 403.947,439.511 404.768,437.43C405.589,435.349 408.961,429.723 405.768,428.367C406.695,424.539 407.144,420.611 407.105,416.672C407.066,412.733 413.326,406.872 417.773,403.217C422.22,399.562 424.616,393.364 426.227,385.382C426.339,384.859 439.334,376.2 437.427,369.009C437.091,367.765 436.848,366.664 436.662,365.669C436.581,365.227 436.513,364.811 436.45,364.425L436.68,364.425L439.324,348.569L439.324,364.009L440.892,364.214L440.836,365.458L440.17,380.263C440.049,383.146 439.417,385.986 438.304,388.648C435.504,395.273 430.342,410.022 431.747,425.972L431.598,440.192C431.15,440.279 424.698,441.803 425.919,457.921C427.163,474.605 429.085,477.528 431.619,477.734C434.153,477.94 446.549,480.969 445.889,474.817C445.229,468.665 444.645,454.998 445.466,452.917C446.287,450.836 447.766,445.317 444.566,443.966C444.583,442.097 445.039,440.258 445.897,438.598C447.29,436.228 451.943,424.962 455.446,416.298C459.027,407.528 461.017,398.19 461.325,388.722L461.325,388.405C461.419,385.211 462.105,382.062 463.347,379.118C464.779,375.824 465.911,372.407 466.731,368.91C466.818,368.493 466.887,368.089 466.949,367.666L469.985,368.066L480.349,323.215C480.349,323.215 483.186,298.905 481.798,287.925C481.742,287.471 481.68,287.054 481.605,286.65L482.227,286.706C482.227,286.706 484.342,281.288 483.708,258.128C483.074,234.968 487.938,227.647 487.938,227.647C490.563,219.324 493.462,216.537 495.154,215.604C495.589,215.326 496.088,215.164 496.603,215.131L504.447,224.107L505.89,225.762C505.893,225.729 505.893,225.695 505.89,225.662L506.512,226.39C506.464,226.021 506.448,225.649 506.462,225.277C510.648,227.709 520.322,233.395 526.094,237.477C533.621,242.796 535.686,242.177 542.268,241.62C546.262,241.29 551.661,239.051 555.282,237.346L555.612,237.19C556.586,237.71 557.612,238.127 558.673,238.434C559.734,238.741 569.298,247.434 570.324,231.007C571.35,214.58 554.408,220.239 553.748,221.909ZM281.994,409.865C280.912,409.543 279.869,409.103 278.884,408.552L281.994,409.865ZM265.36,232.03L265.397,234.363L265.235,234.438C265.285,233.616 265.322,232.807 265.36,232.03ZM431.538,440.247L431.538,441.155C431.301,440.901 431.301,440.501 431.538,440.247Z" style="fill:url(#_Linear1);fill-rule:nonzero;"/>
                </g>
                <g id="Rectangle_5" transform="matrix(1,0,0,1,388.174,125.427)">
                    <rect x="0" y="0" width="18.04" height="18.973" style="fill:rgb(255,117,144);"/>
                </g>
                <g id="Path_103" transform="matrix(1,0,0,1,-59.239,-41.485)">
                    <path d="M425.491,385.984C423.905,393.915 421.553,400.084 417.199,403.713C412.845,407.342 406.73,417.087 406.73,417.087C406.624,430.045 403.203,433.987 403.203,433.987L399.676,434.92L390.967,434.92C390.153,432.662 389.529,430.34 389.101,427.978C388.995,427.113 389.611,425.664 390.47,424.109C393.583,418.409 395.519,412.14 396.162,405.677L396.562,401.851C395.828,378.107 405.271,370.399 409.233,368.204C410.343,367.585 411.081,366.458 411.205,365.193L411.905,358.406L435.332,359.557C435.332,359.557 434.832,361.622 435.724,366.4C435.904,367.389 436.147,368.49 436.47,369.716C438.343,376.858 425.591,385.461 425.491,385.984Z" style="fill:rgb(142,83,98);fill-rule:nonzero;"/>
                </g>
                <g id="Path_104" transform="matrix(1,0,0,1,-59.239,-41.485)">
                    <path d="M465.216,369.586C464.412,373.059 463.303,376.455 461.9,379.732C460.68,382.662 460.005,385.79 459.909,388.963L459.909,389.28C459.606,398.683 457.654,407.96 454.142,416.688C450.702,425.297 446.142,436.501 444.774,438.858C442.497,442.796 443.841,449.433 443.841,449.433L430.653,448.5L430.883,426.311C429.508,410.467 434.572,395.83 437.315,389.217C438.423,386.572 439.055,383.753 439.181,380.888L439.803,366.17L439.996,361.816C439.996,361.816 463.311,358.5 465.277,363.788C465.82,365.188 465.689,367.272 465.216,369.586Z" style="fill:rgb(142,83,98);fill-rule:nonzero;"/>
                </g>
                <g id="Path_107" transform="matrix(1,0,0,1,-59.239,-41.485)">
                    <path d="M478.572,324.188L468.414,368.771L438.35,364.728L438.35,349.382L435.75,365.151L399.67,363.384L401.536,328.859C403.469,321.97 404.822,314.93 405.579,307.815C406.279,300.015 409.979,280.774 411.762,271.735C412.384,268.755 412.732,266.877 412.732,266.877C412.732,266.877 474.532,279.729 478.571,284.394C479.261,285.194 479.716,286.882 479.995,289.128C481.352,300.027 478.572,324.188 478.572,324.188Z" style="fill:rgb(189,210,232);fill-rule:nonzero;"/>
                </g>
                <g id="Path_108" transform="matrix(1,0,0,1,-59.239,-41.485)">
                    <path d="M406.413,327.093C406.413,327.093 430.736,314.341 436.664,317.034L406.413,327.093Z" style="fill-opacity:0.1;fill-rule:nonzero;"/>
                </g>
                <g id="Path_109" transform="matrix(1,0,0,1,-59.239,-41.485)">
                    <path d="M419.681,285.415C419.681,285.415 439.9,300.761 440.52,304.9L419.681,285.415Z" style="fill-opacity:0.1;fill-rule:nonzero;"/>
                </g>
                <g id="Path_110" transform="matrix(1,0,0,1,-59.239,-41.485)">
                    <path d="M414.188,338.29C414.188,338.29 428.806,337.668 433.472,341.4L414.188,338.29Z" style="fill-opacity:0.1;fill-rule:nonzero;"/>
                </g>
                <g id="Path_111" transform="matrix(1,0,0,1,-59.239,-41.485)">
                    <path d="M440.52,321.88C440.52,321.88 447.468,344.623 444.458,350.843C441.448,357.063 438.343,349.387 438.343,349.387L440.52,321.88Z" style="fill-opacity:0.1;fill-rule:nonzero;"/>
                </g>
                <g id="Path_112" transform="matrix(1,0,0,1,-59.239,-41.485)">
                    <path d="M430.76,440.421C430.76,440.421 423.917,441.46 425.16,458.044C426.403,474.628 428.27,477.544 430.76,477.744C433.25,477.944 445.378,480.96 444.76,474.839C444.142,468.718 443.516,455.145 444.343,453.067C445.17,450.989 446.601,445.521 443.466,444.167L442.788,447.367C442.788,447.367 436.151,441.246 432.213,445.706C432.044,444.619 431.771,443.55 431.398,442.515C431,441.547 430.144,441.043 430.76,440.421Z" style="fill:rgb(73,68,87);fill-rule:nonzero;"/>
                </g>
                <g id="Path_113" transform="matrix(1,0,0,1,-59.239,-41.485)">
                    <path d="M555.988,236.894C555.988,236.894 554.42,237.771 552.119,238.866C548.567,240.558 543.273,242.785 539.354,243.115C532.897,243.662 530.875,244.284 523.491,238.997C517.824,234.941 508.338,229.287 504.207,226.873L502.407,225.809L502.227,225.703L502.227,225.628L505.655,216.21L517.785,209.759L520.796,212.341L529.76,220.023C529.76,220.023 531.16,222.275 533.418,222.123C535.676,221.971 547.725,222.975 547.725,222.975L550.002,223.348L554.802,224.148L555.988,236.894Z" style="fill:rgb(142,83,98);fill-rule:nonzero;"/>
                </g>
                <g id="Path_114" transform="matrix(1,0,0,1,-59.239,-41.485)">
                    <path d="M555.988,236.894C555.988,236.894 554.42,237.771 552.119,238.866C549.687,237.622 546.663,235.289 547.827,231.451C548.878,227.999 549.164,225.305 550.027,223.364L554.827,224.164L555.988,236.894Z" style="fill-opacity:0.1;fill-rule:nonzero;"/>
                </g>
                <g id="Path_115" transform="matrix(1,0,0,1,-59.239,-41.485)">
                    <path d="M554.358,220.1C554.358,220.1 567.888,216.212 566.88,232.541C565.872,248.87 555.446,239.931 555.446,239.931C555.446,239.931 546.582,237.598 548.446,231.452C550.31,225.306 549.773,221.579 554.358,220.1Z" style="fill:rgb(142,83,98);fill-rule:nonzero;"/>
                </g>
                <g id="Path_116" transform="matrix(1,0,0,1,-59.239,-41.485)">
                    <path d="M414.083,167.223L399.983,173.145L399.765,173.238L399.61,173.163L398.733,172.721C395.088,170.905 382.559,164.69 374.678,161.001C365.347,156.647 366.796,152.292 366.796,152.292L365.452,106.676L363.063,98.483C363.063,98.483 361.377,70.714 374.882,63.753C388.387,56.792 379.653,103.976 379.653,103.976L380.698,113.776C381.373,120.048 382.611,126.246 384.398,132.295C384.982,134.283 385.349,136.328 385.493,138.395C385.91,145.026 389.02,144.585 389.02,144.585C393.933,145.356 398.676,146.968 403.041,149.35C404.662,150.206 406.214,151.188 407.682,152.286L414.083,167.223Z" style="fill:rgb(142,83,98);fill-rule:nonzero;"/>
                </g>
                <g id="Path_117" transform="matrix(1,0,0,1,-59.239,-41.485)">
                    <path d="M464.264,189L452.233,187.756C454.365,184.515 456.081,181.019 457.34,177.349C457.561,176.645 457.738,175.929 457.869,175.203C458.336,173.424 458.1,171.532 457.21,169.922C453.689,164.74 478.155,157.481 478.155,157.481C477.858,160.349 477.769,163.234 477.888,166.115C477.958,168.12 478.166,170.117 478.51,172.093C479.25,176.118 480.725,179.906 483.536,181.847C491.218,187.129 464.264,189 464.264,189Z" style="fill:rgb(142,83,98);fill-rule:nonzero;"/>
                </g>
                <g id="Path_118" transform="matrix(1,0,0,1,-59.239,-41.485)">
                    <path d="M464.264,189L452.233,187.756C454.365,184.515 456.081,181.019 457.34,177.349C458.727,179.321 459.206,179.277 461.153,179.669C461.153,179.669 473.296,181.469 478.521,172.092C479.261,176.117 480.736,179.905 483.547,181.846C491.218,187.129 464.264,189 464.264,189Z" style="fill-opacity:0.1;fill-rule:nonzero;"/>
                </g>
                <g id="Path_119" transform="matrix(1,0,0,1,-59.239,-41.485)">
                    <path d="M504.232,226.873C504.218,227.243 504.235,227.613 504.282,227.98L502.416,225.809L502.26,225.629L505.688,216.211L517.818,209.76L520.829,212.342C516.518,213.99 504.425,219.221 504.232,226.873Z" style="fill-opacity:0.1;fill-rule:nonzero;"/>
                </g>
                <g id="Path_122" transform="matrix(1,0,0,1,-59.239,-41.485)">
                    <path d="M461.154,180.286C461.154,180.286 473.427,182.102 478.615,172.566C478.615,172.566 487.28,179.682 492.462,180.292C497.644,180.902 521.7,211.184 521.7,211.184C521.7,211.184 502.416,217.405 503.66,227.358L494.534,216.783C494.534,216.783 489.974,216.571 486.034,229.224C486.034,229.224 481.263,236.477 481.885,259.494C482.507,282.511 480.436,287.904 480.436,287.904C480.436,287.904 419.884,282.722 414.497,274.219C409.11,265.716 408.276,269.865 408.276,269.865C408.276,269.865 407.442,253.691 413.041,240.628C418.64,227.565 417.395,190.036 417.395,190.036C417.395,190.036 418.017,171.579 399.772,173.236C399.772,173.236 407.442,155.401 403.921,148.559C403.921,148.559 414.415,151.408 421.892,151.495C426.481,151.53 431.005,152.593 435.13,154.605C437.263,155.531 439.146,156.952 440.623,158.748C444.144,163.725 449.954,161.448 449.954,161.448C451.418,166.002 453.228,170.438 455.366,174.717C455.609,175.171 455.851,175.617 456.1,176.048C456.439,176.651 456.808,177.236 457.207,177.802C458.7,179.938 459.126,179.882 461.154,180.286Z" style="fill:rgb(255,117,144);fill-rule:nonzero;"/>
                </g>
                <g id="Path_123" transform="matrix(1,0,0,1,-59.239,-41.485)">
                    <path d="M477.888,166.091C477.227,167.03 476.491,167.914 475.688,168.735C471.603,172.928 465.99,175.294 460.136,175.292C459.386,175.292 458.636,175.255 457.89,175.18C458.357,173.401 458.121,171.509 457.231,169.899C453.71,164.717 478.176,157.458 478.176,157.458C477.872,160.325 477.776,163.21 477.888,166.091Z" style="fill-opacity:0.1;fill-rule:nonzero;"/>
                </g>
                <g id="Path_124" transform="matrix(1,0,0,1,-59.239,-41.485)">
                    <path d="M481.887,152.916C481.843,164.785 472.065,174.526 460.196,174.526C448.297,174.526 438.505,164.734 438.505,152.835C438.505,140.936 448.297,131.144 460.196,131.144C465.947,131.144 471.468,133.431 475.534,137.497C479.613,141.588 481.9,147.139 481.887,152.916Z" style="fill:rgb(142,83,98);fill-rule:nonzero;"/>
                </g>
                <g id="Path_125" transform="matrix(1,0,0,1,-59.239,-41.485)">
                    <path d="M492.674,202.681L493.122,217.25C493.122,217.25 499.622,212.012 499.828,207.036C500.034,202.06 492.674,202.681 492.674,202.681Z" style="fill-opacity:0.1;fill-rule:nonzero;"/>
                </g>
                <g id="Path_126" transform="matrix(1,0,0,1,-59.239,-41.485)">
                    <path d="M440.209,217.249C440.209,217.249 457.316,240.732 467.269,243.114C477.222,245.496 443.942,224.863 440.209,217.249Z" style="fill-opacity:0.1;fill-rule:nonzero;"/>
                </g>
                <g id="Path_127" transform="matrix(1,0,0,1,-59.239,-41.485)">
                    <path d="M458.355,219.694C458.355,219.694 467.891,230.468 474.734,231.812L458.355,219.694Z" style="fill-opacity:0.1;fill-rule:nonzero;"/>
                </g>
                <g id="Path_128" transform="matrix(1,0,0,1,-59.239,-41.485)">
                    <path d="M424.763,246.847C424.763,246.847 442.181,263.954 452.134,264.993L424.763,246.847Z" style="fill-opacity:0.1;fill-rule:nonzero;"/>
                </g>
                <g id="Path_129" transform="matrix(1,0,0,1,-59.239,-41.485)">
                    <path d="M481.887,152.916C481.89,158.606 479.654,164.074 475.666,168.132L473.277,166.645C472.353,166.164 471.555,165.471 470.95,164.623C470.16,163.304 470.39,161.65 470.45,160.113C470.581,156.86 469.685,153.339 467.141,151.305C463.017,148.005 456.404,149.831 452.211,146.59C451.201,145.733 450.312,144.743 449.567,143.648L445.636,138.379C445.4,138.068 445.113,137.757 444.809,137.39C448.88,133.385 454.367,131.138 460.078,131.138C472.022,131.138 481.85,140.966 481.85,152.91C481.85,152.92 481.85,152.93 481.85,152.94L481.887,152.916Z" style="fill-opacity:0.1;fill-rule:nonzero;"/>
                </g>
                <g id="Path_130" transform="matrix(1,0,0,1,-59.239,-41.485)">
                    <path d="M447,125.035C448.947,123.548 451.323,122.764 453.513,121.67C455.703,120.576 457.637,119.182 459.827,118.249C461.994,117.173 464.481,116.924 466.819,117.549C471.69,119.222 473.531,126.028 478.539,127.222C479.385,127.422 480.256,127.44 481.108,127.57C484.396,128.194 487.264,130.2 488.977,133.075C490.648,135.945 491.508,139.216 491.465,142.537C491.534,144.38 491.267,146.221 490.675,147.968C489.195,152.03 485.481,154.811 482.975,158.325C480.604,161.688 479.344,165.71 479.375,169.825L473.304,166.049C472.379,165.57 471.581,164.877 470.978,164.027C470.188,162.708 470.418,161.054 470.478,159.517C470.609,156.264 469.713,152.743 467.178,150.709C463.047,147.409 456.435,149.235 452.248,145.994C451.238,145.137 450.349,144.147 449.604,143.052L445.673,137.783C444.821,136.638 443.185,135.214 442.812,133.82C441.976,130.82 444.806,126.72 447,125.035Z" style="fill:rgb(54,33,51);fill-rule:nonzero;"/>
                </g>
                <g id="Path_131" transform="matrix(1,0,0,1,-59.239,-41.485)">
                    <path d="M473.975,165.344C473.05,164.865 472.252,164.172 471.649,163.322C470.859,162.003 471.089,160.349 471.149,158.812C471.28,155.559 470.384,152.038 467.84,150.004C463.716,146.704 457.103,148.53 452.91,145.289C451.9,144.432 451.011,143.442 450.266,142.347L446.335,137.078C445.477,135.933 443.847,134.509 443.474,133.115C442.796,130.715 444.513,127.585 446.348,125.582C444.289,127.482 442.031,131.1 442.796,133.793C443.196,135.186 444.805,136.611 445.657,137.756L449.588,143.025C450.333,144.12 451.222,145.11 452.232,145.967C456.406,149.208 463.019,147.379 467.162,150.682C469.7,152.716 470.596,156.237 470.462,159.49C470.4,161.026 470.17,162.681 470.962,164C471.566,164.85 472.363,165.543 473.289,166.022L479.36,169.798C479.354,169.439 479.366,169.08 479.397,168.722L473.975,165.344Z" style="fill-opacity:0.1;fill-rule:nonzero;"/>
                </g>
                <g id="Path_132" transform="matrix(1,0,0,1,-59.239,-41.485)">
                    <path d="M390.077,424.832C390.077,424.832 384.018,426.076 385.262,442.691C386.506,459.306 388.372,462.191 390.862,462.391C393.352,462.591 405.48,465.607 404.862,459.486C404.244,453.365 403.618,439.792 404.445,437.714C405.272,435.636 408.557,430.056 405.422,428.707L402.89,432.016C402.89,432.016 396.253,425.895 392.315,430.355C392.31,430.356 388.628,426.281 390.077,424.832Z" style="fill:rgb(73,68,87);fill-rule:nonzero;"/>
                </g>
                <g id="Path_133" transform="matrix(1,0,0,1,-59.239,-41.485)">
                    <path d="M393.909,435.133C395.222,435.755 396.447,436.514 397.753,437.133C399.039,437.807 400.475,438.145 401.927,438.116C402.542,438.104 403.137,437.897 403.627,437.525" style="fill-opacity:0.1;fill-rule:nonzero;"/>
                </g>
                <g id="Path_134" transform="matrix(1,0,0,1,-59.239,-41.485)">
                    <path d="M433.783,451.381C434.479,452.177 435.234,452.919 436.041,453.602C437.376,454.314 438.888,454.626 440.395,454.502C440.648,454.525 440.903,454.493 441.142,454.409C441.413,454.262 441.642,454.048 441.808,453.787L442.623,452.736" style="fill-opacity:0.1;fill-rule:nonzero;"/>
                </g>
                <g id="Path_135" transform="matrix(1,0,0,1,-59.239,-41.485)">
                    <path d="M331.56,175.515C331.56,175.515 328.76,148.978 339.647,155.509C350.534,162.04 343.037,173.648 343.037,173.648L340.48,181.841L331.56,175.515Z" style="fill:rgb(255,193,199);fill-rule:nonzero;"/>
                </g>
                <g id="Path_136" transform="matrix(1,0,0,1,-59.239,-41.485)">
                    <path d="M348.977,90.709L355.2,84.6C355.2,84.6 367.125,50.281 378.944,59.1C390.763,67.919 363.965,90.2 363.965,90.2L356.865,98.492L348.977,90.709Z" style="fill:rgb(255,193,199);fill-rule:nonzero;"/>
                </g>
                <g id="Path_137" transform="matrix(1,0,0,1,-59.239,-41.485)">
                    <path d="M257.945,226.431L257.634,233.479C257.634,233.479 263.334,243.432 265.721,244.16C268.108,244.888 267.898,223.109 267.898,223.109L257.945,226.431Z" style="fill:rgb(255,83,116);fill-rule:nonzero;"/>
                </g>
                <g id="Path_138" transform="matrix(1,0,0,1,-59.239,-41.485)">
                    <path d="M257.945,226.431L257.634,233.479C257.634,233.479 263.334,243.432 265.721,244.16C268.108,244.888 267.898,223.109 267.898,223.109L257.945,226.431Z" style="fill-opacity:0.1;fill-rule:nonzero;"/>
                </g>
                <path id="Path_139" d="M208.242,177.207L208.665,203.184L237.585,203.184L235.408,188.049L208.242,177.207Z" style="fill:rgb(255,193,199);fill-rule:nonzero;"/>
                <g id="Path_140" transform="matrix(1,0,0,1,-59.239,-41.485)">
                    <path d="M274.224,283.549L275.574,291.841L292.474,329.376C292.474,329.376 300.144,341.195 293.923,351.148C287.702,361.101 281.276,376.648 280.238,386.083C279.2,395.518 271.013,404.745 271.013,404.745L288.848,412.315C288.848,412.315 290.092,397.491 295.069,390.543C300.046,383.595 316.008,353.014 316.008,353.014C316.008,353.014 321.09,348.448 319.952,334.868C318.814,321.288 318.913,311.746 318.913,311.746L317.153,290.08L274.224,283.549Z" style="fill:rgb(87,89,136);fill-rule:nonzero;"/>
                </g>
                <g id="Path_141" transform="matrix(1,0,0,1,-59.239,-41.485)">
                    <path d="M274.224,283.549L275.574,291.841L292.474,329.376C292.474,329.376 300.144,341.195 293.923,351.148C287.702,361.101 281.276,376.648 280.238,386.083C279.2,395.518 271.013,404.745 271.013,404.745L288.848,412.315C288.848,412.315 290.092,397.491 295.069,390.543C300.046,383.595 316.008,353.014 316.008,353.014C316.008,353.014 321.09,348.448 319.952,334.868C318.814,321.288 318.913,311.746 318.913,311.746L317.153,290.08L274.224,283.549Z" style="fill-opacity:0.1;fill-rule:nonzero;"/>
                </g>
                <g id="Path_142" transform="matrix(1,0,0,1,-59.239,-41.485)">
                    <path d="M272.563,403.607C272.563,403.607 253.484,409.407 259.811,418.953C266.138,428.499 286.665,446.635 294.958,446.013C303.251,445.391 299.935,439.27 299.935,439.27L292.987,432.427C292.987,432.427 291.743,417.914 292.265,413.666C292.787,409.418 286.355,407.445 285.522,409.934C284.689,412.423 272.563,403.607 272.563,403.607Z" style="fill:rgb(196,116,123);fill-rule:nonzero;"/>
                </g>
                <g id="Path_143" transform="matrix(1,0,0,1,-59.239,-41.485)">
                    <path d="M284.588,233.634L269.466,235.307C266.68,235.615 264.567,238.034 264.639,240.837C264.801,246.883 264.906,256.501 264.06,258.255C262.816,260.849 258.984,279.306 275.568,291.846L298.068,299L261.988,301.594L263.133,321.606L268.733,318.496L337.16,321.606C337.16,321.606 356.55,319.634 343.381,298.59C330.212,277.546 302.225,256.912 302.225,256.912L301.914,240.527L299.836,235.762L284.588,233.634Z" style="fill:rgb(87,89,136);fill-rule:nonzero;"/>
                </g>
                <g id="Path_144" transform="matrix(1,0,0,1,-59.239,-41.485)">
                    <path d="M303.355,298.684C308.311,296.52 313.951,296.52 318.907,298.684L303.355,298.684Z" style="fill-opacity:0.1;fill-rule:nonzero;"/>
                </g>
                <g id="Path_145" transform="matrix(1,0,0,1,-59.239,-41.485)">
                    <path d="M263.755,301.483C263.755,301.483 241.466,298.273 241.361,302.522C241.256,306.771 244.471,348.138 255.152,345.339C265.833,342.54 261.267,328.854 261.267,328.854L269.254,321.184C269.254,321.184 270.081,316.935 264.794,317.346L263.755,301.483Z" style="fill:rgb(196,116,123);fill-rule:nonzero;"/>
                </g>
                <g id="Path_146" transform="matrix(1,0,0,1,-59.239,-41.485)">
                    <path d="M300.662,185.468L309.47,195.527C309.47,195.527 313.308,200.298 317.87,193.039C322.432,185.78 330.933,172.822 330.933,172.822C330.933,172.822 340.37,181.114 342.858,179.459C345.346,177.804 319.947,213.99 319.947,213.99C319.947,213.99 311.86,225.909 299.829,211.813L296.308,210.152L300.662,185.468Z" style="fill:rgb(255,83,116);fill-rule:nonzero;"/>
                </g>
                <g id="Path_147" transform="matrix(1,0,0,1,-59.239,-41.485)">
                    <path d="M300.662,185.468L309.47,195.527C309.47,195.527 313.308,200.298 317.87,193.039C322.432,185.78 330.933,172.822 330.933,172.822C330.933,172.822 340.37,181.114 342.858,179.459C345.346,177.804 319.947,213.99 319.947,213.99C319.947,213.99 311.86,225.909 299.829,211.813L296.308,210.152L300.662,185.468Z" style="fill-opacity:0.1;fill-rule:nonzero;"/>
                </g>
                <g id="Ellipse_1" transform="matrix(1,0,0,1,196.124,66.405)">
                    <circle cx="18.351" cy="18.351" r="18.351" style="fill:rgb(255,193,199);"/>
                </g>
                <g id="Path_149" transform="matrix(1,0,0,1,-59.239,-41.485)">
                    <path d="M273.708,134.876C273.708,134.876 257.939,142.341 259.808,155.404C261.039,165.21 261.765,175.072 261.985,184.952C262.205,194.832 269.145,195.527 259.652,215.744C259.652,215.744 253.587,226.008 257.63,233.473C257.63,233.473 262.115,221.654 273.71,230.363C285.305,239.072 303.973,243.115 303.973,243.115C303.973,243.115 294.331,200.815 300.241,194.905C300.241,194.905 310.505,179.664 301.174,170.022C291.843,160.38 296.509,151.36 296.509,151.36L326.474,135.292C326.474,135.292 332.794,135.392 341.298,122.123C346.803,113.644 352.865,105.539 359.444,97.863C366.023,90.187 353.008,88.221 347,87.493C347,87.493 344.611,89.981 342.957,96.724C342.074,100.301 336.071,106.279 330.64,111.1C326.783,114.521 323.063,118.073 319.35,121.675C316.6,124.319 310.479,128.101 297.13,130.241C275.157,133.744 273.708,134.876 273.708,134.876Z" style="fill:rgb(255,83,116);fill-rule:nonzero;"/>
                </g>
                <g id="Path_150" transform="matrix(1,0,0,1,-59.239,-41.485)">
                    <path d="M287.287,213.05C287.287,213.05 299.517,231.09 299.828,234.2C299.834,234.2 297.968,214.811 287.287,213.05Z" style="fill-opacity:0.1;fill-rule:nonzero;"/>
                </g>
                <g id="Path_151" transform="matrix(1,0,0,1,-59.239,-41.485)">
                    <path d="M271.22,152.294C271.22,152.294 279.748,162.558 292.072,153.955C285.192,156.291 277.644,155.69 271.22,152.294Z" style="fill-opacity:0.1;fill-rule:nonzero;"/>
                </g>
                <g id="Path_153" transform="matrix(1,0,0,1,-59.239,-41.485)">
                    <path d="M276.588,107.051C276.365,106.119 275.901,105.261 275.244,104.563C272.432,101.036 269.378,97.416 265.191,95.742C259.503,93.618 253.051,95.456 249.335,100.258C247.83,102.286 246.935,104.7 245.635,106.871C243.082,110.825 239.614,114.106 235.526,116.438C233.119,117.912 230.581,119.188 228.31,120.861C220.055,126.939 216.242,138.173 218.32,148.232C219.234,152.632 221.169,156.978 220.647,161.451C220.247,164.922 218.395,168.032 216.523,170.981C214.651,173.93 212.654,176.915 211.907,180.312C211.16,183.709 211.944,187.733 214.762,189.792C215.878,190.422 216.941,191.142 217.941,191.944C218.53,192.651 219.021,193.433 219.403,194.27C222.395,199.793 227.535,203.847 233.603,205.47C236.278,206.17 239.867,205.918 240.844,203.33C240.955,202.873 241.123,202.432 241.344,202.017C242.227,200.773 244.174,201.47 245.544,202.185C248.659,203.813 252.073,204.793 255.578,205.065C256.968,205.248 258.382,205.08 259.69,204.574C260.794,204.013 261.744,203.191 262.458,202.179C265.73,197.918 266.669,192.35 267.229,187.007C267.731,183.54 267.716,180.018 267.185,176.556C266.128,171.045 262.775,165.894 263.272,160.308C263.801,154.336 268.647,149.453 269.387,143.508C269.763,140.399 268.986,137.257 267.204,134.681C266.546,133.886 265.988,133.012 265.543,132.081C265.11,131.119 265.309,129.984 266.043,129.226C266.437,128.949 266.874,128.738 267.337,128.604C271.337,127.068 273.471,123.061 273.757,118.962C273.741,117.451 273.885,115.943 274.186,114.462C274.871,112.114 276.943,109.552 276.588,107.051Z" style="fill:rgb(187,118,132);fill-rule:nonzero;"/>
                </g>
                <g id="Path_156" transform="matrix(1,0,0,1,-59.239,-41.485)">
                    <path d="M253.068,326.583C255.239,328.954 258.588,329.879 261.668,328.959" style="fill-opacity:0.1;fill-rule:nonzero;"/>
                </g>
                <g id="Path_157" transform="matrix(1,0,0,1,-59.239,-41.485)">
                    <path d="M292.93,432.956C291.727,433.927 290.157,434.323 288.638,434.038" style="fill-opacity:0.1;fill-rule:nonzero;"/>
                </g>
                <g id="Ellipse_3" transform="matrix(1,0,0,1,507.293,461.478)">
                    <ellipse cx="16.752" cy="2.83" rx="16.752" ry="2.83" style="fill:rgb(22,140,134);"/>
                </g>
                <g id="Ellipse_4" transform="matrix(1,0,0,1,507.293,406.997)">
                    <ellipse cx="16.752" cy="2.83" rx="16.752" ry="2.83" style="fill:rgb(108,99,255);fill-opacity:0.1;"/>
                </g>
                <g id="Ellipse_6" transform="matrix(1,0,0,1,552.013,430.001)">
                    <ellipse cx="25.013" cy="4.23" rx="25.013" ry="4.23" style="fill:rgb(22,140,134);"/>
                </g>
                <g id="Path_158" transform="matrix(1,0,0,1,-59.239,-41.485)">
                    <path d="M646.6,468.8C647.741,467.869 648.574,466.613 648.989,465.2C649.364,463.744 648.666,462.21 647.322,461.536C645.792,460.951 644.156,462.009 642.922,463.085C641.688,464.161 640.26,465.374 638.636,465.15C640.332,463.614 641.099,461.294 640.652,459.05C640.581,458.592 640.388,458.162 640.092,457.806C639.24,456.898 637.703,457.29 636.683,458.006C633.448,460.283 632.546,464.675 632.528,468.631C632.351,467.186 632.332,465.726 632.472,464.277C632.466,462.834 632.061,461.167 630.83,460.402C630.069,459.983 629.211,459.768 628.342,459.78C626.886,459.73 625.269,459.873 624.274,460.937C623.03,462.262 623.36,464.477 624.436,465.914C625.64,467.264 627.062,468.404 628.641,469.286C629.848,470.003 630.877,470.984 631.652,472.154C631.742,472.317 631.817,472.488 631.876,472.664L640.989,472.664C643.025,471.634 644.912,470.335 646.6,468.8Z" style="fill:rgb(22,140,134);fill-rule:nonzero;"/>
                </g>
                <g id="Path_159" transform="matrix(1,0,0,1,-59.239,-41.485)">
                    <path d="M593.629,499.025C594.769,498.094 595.6,496.838 596.012,495.425C596.383,493.969 595.686,492.438 594.345,491.761C592.815,491.176 591.179,492.234 589.945,493.31C588.711,494.386 587.283,495.599 585.659,495.375C587.355,493.839 588.122,491.519 587.675,489.275C587.608,488.816 587.414,488.385 587.115,488.031C586.269,487.123 584.726,487.515 583.715,488.231C580.48,490.508 579.578,494.9 579.56,498.856C579.378,497.411 579.357,495.951 579.498,494.502C579.492,493.059 579.087,491.392 577.856,490.627C577.092,490.217 576.235,490.013 575.368,490.036C573.912,489.986 572.295,490.129 571.3,491.193C570.056,492.518 570.386,494.733 571.462,496.17C572.667,497.522 574.091,498.661 575.673,499.542C576.876,500.261 577.901,501.241 578.673,502.41C578.763,502.573 578.837,502.744 578.897,502.92L588.01,502.92C590.05,501.882 591.942,500.574 593.633,499.032L593.629,499.025Z" style="fill:rgb(22,140,134);fill-rule:nonzero;"/>
                </g>
                <g id="Path_160" transform="matrix(1,0,0,1,-59.239,-41.485)">
                    <path d="M191.123,442.909C191.123,442.909 182.383,413.23 192.765,391.39C197.185,382.254 198.522,371.926 196.572,361.966C195.61,357.248 194.216,352.629 192.41,348.166" style="fill:none;fill-rule:nonzero;stroke:rgb(83,84,97);stroke-width:1.24px;"/>
                </g>
                <g id="Path_161" transform="matrix(1,0,0,1,-59.239,-41.485)">
                    <path d="M198.849,334.359C198.849,337.998 192.261,348.542 192.261,348.542C192.261,348.542 185.68,338 185.68,334.359C185.678,334.287 185.677,334.216 185.677,334.144C185.677,330.53 188.65,327.556 192.265,327.556C195.879,327.556 198.853,330.53 198.853,334.144C198.853,334.216 198.851,334.287 198.849,334.359Z" style="fill:rgb(25,153,139);fill-rule:nonzero;"/>
                </g>
                <g id="Path_162" transform="matrix(1,0,0,1,-59.239,-41.485)">
                    <path d="M209.735,354.508C207.757,357.556 196.497,362.831 196.497,362.831C196.497,362.831 196.702,350.39 198.68,347.348C199.909,345.568 201.939,344.503 204.102,344.503C207.716,344.503 210.69,347.477 210.69,351.091C210.69,352.296 210.359,353.478 209.734,354.508L209.735,354.508Z" style="fill:rgb(25,153,139);fill-rule:nonzero;"/>
                </g>
                <g id="Path_163" transform="matrix(1,0,0,1,-59.239,-41.485)">
                    <path d="M209.262,388.933C206.015,390.575 193.63,389.443 193.63,389.443C193.63,389.443 200.081,378.812 203.33,377.176C204.202,376.769 205.152,376.559 206.114,376.559C209.728,376.559 212.702,379.533 212.702,383.147C212.702,385.556 211.38,387.781 209.264,388.933L209.262,388.933Z" style="fill:rgb(25,153,139);fill-rule:nonzero;"/>
                </g>
                <g id="Path_164" transform="matrix(1,0,0,1,-59.239,-41.485)">
                    <path d="M203.035,414.916C200.111,417.075 187.714,418.026 187.714,418.026C187.714,418.026 192.28,406.456 195.179,404.291C196.26,403.571 197.531,403.187 198.83,403.187C202.444,403.187 205.418,406.161 205.418,409.775C205.418,411.745 204.534,413.615 203.011,414.866L203.035,414.916Z" style="fill:rgb(25,153,139);fill-rule:nonzero;"/>
                </g>
                <g id="Path_165" transform="matrix(1,0,0,1,-59.239,-41.485)">
                    <path d="M182.669,363.54C185.282,366.072 197.431,368.697 197.431,368.697C197.431,368.697 194.458,356.623 191.831,354.091C190.616,352.977 189.027,352.359 187.379,352.359C183.765,352.359 180.791,355.333 180.791,358.947C180.791,360.662 181.461,362.311 182.656,363.54L182.669,363.54Z" style="fill:rgb(25,153,139);fill-rule:nonzero;"/>
                </g>
                <g id="Path_166" transform="matrix(1,0,0,1,-59.239,-41.485)">
                    <path d="M175.776,394C179.023,395.636 191.402,394.5 191.402,394.5C191.402,394.5 184.951,383.869 181.702,382.233C180.783,381.77 179.768,381.529 178.739,381.529C175.125,381.529 172.152,384.503 172.152,388.116C172.152,390.601 173.557,392.883 175.776,394Z" style="fill:rgb(25,153,139);fill-rule:nonzero;"/>
                </g>
                <g id="Path_167" transform="matrix(1,0,0,1,-59.239,-41.485)">
                    <path d="M173.133,424.527C176.057,426.692 188.454,427.637 188.454,427.637C188.454,427.637 183.888,416.067 180.989,413.908C179.908,413.188 178.637,412.804 177.338,412.804C173.724,412.804 170.75,415.778 170.75,419.392C170.75,421.362 171.634,423.232 173.157,424.483L173.133,424.527Z" style="fill:rgb(25,153,139);fill-rule:nonzero;"/>
                </g>
                <g id="Path_168" transform="matrix(1,0,0,1,-59.239,-41.485)">
                    <path d="M170.445,441.043C170.445,441.043 181.088,438.928 183.931,436.11C186.774,433.292 199.539,428.365 200.957,431.886C202.375,435.407 220.117,447.386 208.057,449.497C195.997,451.608 179.672,452.315 176.127,450.909C172.582,449.503 170.445,441.043 170.445,441.043Z" style="fill:rgb(168,168,168);fill-rule:nonzero;"/>
                </g>
                <g id="Path_169" transform="matrix(1,0,0,1,-59.239,-41.485)">
                    <path d="M208.074,448.172C196.012,450.287 179.689,450.99 176.143,449.578C173.437,448.508 171.558,443.357 170.818,440.95L170.445,441.043C170.445,441.043 172.572,449.497 176.124,450.909C179.676,452.321 195.993,451.609 208.055,449.497C211.539,448.875 212.534,447.457 212.161,445.64C211.881,446.8 210.668,447.717 208.074,448.172Z" style="fill-opacity:0.2;fill-rule:nonzero;"/>
                </g>
                <g id="Path_170" transform="matrix(1,0,0,1,-59.239,-41.485)">
                    <path d="M586.711,410.506C586.711,410.506 590.132,414.979 585.137,421.706C580.142,428.433 576.024,434.147 577.672,438.359C577.672,438.359 585.211,425.824 591.357,425.65C597.503,425.476 593.448,418.026 586.711,410.506Z" style="fill:rgb(22,140,134);fill-rule:nonzero;"/>
                </g>
                <g id="Path_171" transform="matrix(1,0,0,1,-59.239,-41.485)">
                    <path d="M586.711,410.506C587.009,410.939 587.245,411.413 587.411,411.912C593.395,418.941 596.58,425.504 590.826,425.666C585.47,425.822 579.044,435.401 577.501,437.821C577.552,438.009 577.612,438.193 577.681,438.375C577.75,438.557 585.22,425.84 591.366,425.666C597.512,425.492 593.448,418.026 586.711,410.506Z" style="fill-opacity:0.1;fill-rule:nonzero;"/>
                </g>
                <g id="Path_172" transform="matrix(1,0,0,1,-59.239,-41.485)">
                    <path d="M593.069,416.2C593.069,417.774 592.889,419.049 592.669,419.049C592.449,419.049 592.277,417.805 592.277,416.2C592.277,414.595 592.495,415.366 592.712,415.366C592.929,415.366 593.069,414.63 593.069,416.2Z" style="fill:rgb(255,208,55);fill-rule:nonzero;"/>
                </g>
                <g id="Path_173" transform="matrix(1,0,0,1,-59.239,-41.485)">
                    <path d="M595.246,418.082C593.865,418.835 592.658,419.289 592.559,419.096C592.46,418.903 593.486,418.144 594.867,417.396C596.248,416.648 595.707,417.191 595.813,417.396C595.919,417.601 596.627,417.33 595.246,418.082Z" style="fill:rgb(255,208,55);fill-rule:nonzero;"/>
                </g>
                <g id="Path_174" transform="matrix(1,0,0,1,-59.239,-41.485)">
                    <path d="M568.665,410.506C568.665,410.506 565.244,414.979 570.239,421.706C575.234,428.433 579.352,434.147 577.704,438.359C577.704,438.359 570.171,425.824 564.019,425.65C557.867,425.476 561.916,418.026 568.665,410.506Z" style="fill:rgb(22,140,134);fill-rule:nonzero;"/>
                </g>
                <g id="Path_175" transform="matrix(1,0,0,1,-59.239,-41.485)">
                    <path d="M568.665,410.506C568.367,410.939 568.131,411.413 567.965,411.912C561.981,418.941 558.796,425.504 564.55,425.666C569.906,425.822 576.332,435.401 577.875,437.821C577.825,438.01 577.762,438.195 577.688,438.375C577.614,438.555 570.152,425.84 564,425.665C557.848,425.49 561.916,418.026 568.665,410.506Z" style="fill-opacity:0.1;fill-rule:nonzero;"/>
                </g>
                <g id="Path_176" transform="matrix(1,0,0,1,-59.239,-41.485)">
                    <path d="M562.308,416.2C562.308,417.774 562.488,419.049 562.708,419.049C562.928,419.049 563.1,417.805 563.1,416.2C563.1,414.595 562.882,415.366 562.665,415.366C562.448,415.366 562.308,414.63 562.308,416.2Z" style="fill:rgb(255,208,55);fill-rule:nonzero;"/>
                </g>
                <g id="Path_177" transform="matrix(1,0,0,1,-59.239,-41.485)">
                    <path d="M560.131,418.082C561.512,418.835 562.713,419.289 562.818,419.096C562.923,418.903 561.891,418.144 560.51,417.396C559.129,416.648 559.67,417.191 559.564,417.396C559.458,417.601 558.75,417.33 560.131,418.082Z" style="fill:rgb(255,208,55);fill-rule:nonzero;"/>
                </g>
                <g id="Path_178" transform="matrix(1,0,0,1,-59.239,-41.485)">
                    <path d="M563.4,437.789C563.4,437.789 572.955,437.489 575.841,435.444C578.727,433.399 590.541,430.944 591.256,434.2C591.971,437.456 605.613,450.554 594.827,450.641C584.041,450.728 569.764,448.961 566.89,447.213C564.016,445.465 563.4,437.789 563.4,437.789Z" style="fill:rgb(168,168,168);fill-rule:nonzero;"/>
                </g>
                <g id="Path_179" transform="matrix(1,0,0,1,-59.239,-41.485)">
                    <path d="M595.01,449.528C584.223,449.615 569.947,447.848 567.073,446.1C564.883,444.769 564.006,439.985 563.72,437.777L563.4,437.777C563.4,437.777 564.022,445.484 566.884,447.232C569.746,448.98 584.034,450.747 594.821,450.66C597.931,450.66 599.007,449.528 598.951,447.892C598.512,448.893 597.324,449.509 595.01,449.528Z" style="fill-opacity:0.2;fill-rule:nonzero;"/>
                </g>
            </g>
        </g>
    </g>
    <defs>
        <linearGradient id="_Linear1" x1="0" y1="0" x2="1" y2="0" gradientUnits="userSpaceOnUse" gradientTransform="matrix(2.59352e-14,-423.554,423.554,2.59352e-14,389.273,478.66)"><stop offset="0" style="stop-color:rgb(128,128,128);stop-opacity:0.25"/><stop offset="0.54" style="stop-color:rgb(128,128,128);stop-opacity:0.12"/><stop offset="1" style="stop-color:rgb(128,128,128);stop-opacity:0.1"/></linearGradient>
    </defs>
</svg>
