<?xml version="1.0" encoding="UTF-8" standalone="no"?>
<!DOCTYPE svg PUBLIC "-//W3C//DTD SVG 1.1//EN" "http://www.w3.org/Graphics/SVG/1.1/DTD/svg11.dtd">
<svg width="100%" height="100%" viewBox="0 0 1910 1080" version="1.1" xmlns="http://www.w3.org/2000/svg" xmlns:xlink="http://www.w3.org/1999/xlink" xml:space="preserve" xmlns:serif="http://www.serif.com/" style="fill-rule:evenodd;clip-rule:evenodd;stroke-linejoin:round;stroke-miterlimit:2;">
    <g transform="matrix(1,0,0,1,-5,0)">
        <g id="Layer-1" serif:id="Layer 1">
            <g transform="matrix(0.9949,0,0,1,5,0)">
                <rect x="0" y="0" width="1919.79" height="1080" style="fill:rgb(13,19,33);"/>
            </g>
            <path d="M188.314,192.817L88.114,295.034" style="fill:none;fill-rule:nonzero;"/>
            <path d="M88.114,302.034C86.346,302.034 84.577,301.368 83.214,300.033C80.453,297.326 80.409,292.895 83.115,290.134L183.315,187.917C186.021,185.156 190.452,185.112 193.215,187.818C195.975,190.525 196.019,194.956 193.313,197.718L93.114,299.934C91.742,301.333 89.929,302.034 88.114,302.034" style="fill:rgb(10,36,99);fill-rule:nonzero;"/>
            <path d="M311.603,67.045L239.055,141.054" style="fill:none;fill-rule:nonzero;"/>
            <path d="M239.055,148.054C237.287,148.054 235.518,147.388 234.155,146.053C231.394,143.346 231.35,138.915 234.056,136.154L306.604,62.145C309.311,59.385 313.742,59.34 316.504,62.046C319.264,64.753 319.308,69.184 316.602,71.946L244.055,145.954C242.683,147.352 240.87,148.054 239.055,148.054" style="fill:rgb(10,36,99);fill-rule:nonzero;"/>
            <path d="M214.128,648.74C212.107,648.74 210.085,647.979 208.528,646.453C205.373,643.36 205.323,638.295 208.416,635.139L344.842,495.967C347.935,492.812 353.001,492.761 356.155,495.854C359.31,498.947 359.36,504.012 356.268,507.167L219.841,646.341C218.275,647.938 216.202,648.74 214.128,648.74" style="fill:rgb(27,153,139);fill-rule:nonzero;"/>
            <path d="M1799.62,808.76C1797.6,808.76 1795.58,807.999 1794.02,806.473C1790.87,803.38 1790.82,798.315 1793.91,795.159L1834.77,753.471C1837.87,750.317 1842.93,750.266 1846.09,753.359C1849.24,756.451 1849.29,761.517 1846.2,764.672L1805.33,806.361C1803.77,807.958 1801.69,808.76 1799.62,808.76" style="fill:rgb(251,54,64);fill-rule:nonzero;"/>
            <path d="M1214.1,289.103C1212.08,289.103 1210.06,288.342 1208.5,286.816C1205.34,283.723 1205.29,278.657 1208.39,275.503L1306.48,175.439C1309.57,172.285 1314.63,172.233 1317.79,175.327C1320.95,178.419 1321,183.484 1317.9,186.64L1219.81,286.703C1218.25,288.301 1216.17,289.103 1214.1,289.103" style="fill:rgb(251,54,64);fill-rule:nonzero;"/>
            <path d="M1170.7,189.04C1168.68,189.04 1166.66,188.279 1165.1,186.753C1161.94,183.66 1161.89,178.595 1164.99,175.44L1293.38,44.47C1296.47,41.315 1301.53,41.264 1304.69,44.357C1307.84,47.45 1307.89,52.515 1304.8,55.67L1176.41,186.64C1174.85,188.238 1172.77,189.04 1170.7,189.04" style="fill:rgb(27,153,139);fill-rule:nonzero;"/>
            <path d="M1356.96,313.213C1354.94,313.213 1352.92,312.452 1351.36,310.926C1348.2,307.833 1348.15,302.768 1351.25,299.613L1471.17,177.271C1474.27,174.117 1479.33,174.066 1482.49,177.158C1485.64,180.251 1485.69,185.316 1482.6,188.471L1362.67,310.813C1361.11,312.411 1359.03,313.213 1356.96,313.213" style="fill:rgb(10,36,99);fill-rule:nonzero;"/>
            <path d="M1611.53,286.511C1609.51,286.511 1607.49,285.75 1605.93,284.224C1602.78,281.131 1602.73,276.066 1605.82,272.911L1829.31,44.922C1832.4,41.767 1837.47,41.716 1840.62,44.809C1843.78,47.902 1843.83,52.967 1840.73,56.122L1617.24,284.111C1615.68,285.709 1613.6,286.511 1611.53,286.511" style="fill:rgb(27,153,139);fill-rule:nonzero;"/>
            <path d="M26.469,516.505C24.448,516.505 22.427,515.744 20.869,514.218C17.714,511.125 17.664,506.06 20.757,502.905L115.823,405.925C118.916,402.769 123.981,402.72 127.136,405.812C130.291,408.905 130.342,413.97 127.249,417.125L32.182,514.105C30.616,515.703 28.543,516.505 26.469,516.505" style="fill:rgb(27,153,139);fill-rule:nonzero;"/>
            <path d="M178.298,361.619C176.277,361.619 174.256,360.858 172.698,359.332C169.543,356.239 169.493,351.174 172.586,348.019L244.246,274.916C247.339,271.762 252.403,271.71 255.559,274.803C258.714,277.896 258.764,282.961 255.672,286.116L184.011,359.219C182.445,360.817 180.372,361.619 178.298,361.619" style="fill:rgb(27,153,139);fill-rule:nonzero;"/>
            <path d="M989.521,862.828C987.5,862.828 985.479,862.067 983.921,860.541C980.767,857.448 980.716,852.383 983.809,849.227L1078.52,752.609C1081.61,749.456 1086.68,749.404 1089.83,752.497C1092.99,755.59 1093.04,760.655 1089.95,763.81L995.235,860.429C993.668,862.026 991.595,862.828 989.521,862.828" style="fill:rgb(27,153,139);fill-rule:nonzero;"/>
            <path d="M1127.29,722.286C1125.27,722.286 1123.25,721.525 1121.69,719.999C1118.54,716.906 1118.48,711.841 1121.58,708.685L1207.3,621.239C1210.39,618.084 1215.46,618.036 1218.61,621.127C1221.77,624.22 1221.82,629.285 1218.72,632.44L1133,719.887C1131.44,721.484 1129.36,722.286 1127.29,722.286" style="fill:rgb(10,36,99);fill-rule:nonzero;"/>
            <path d="M1566,941.83C1563.98,941.83 1561.96,941.069 1560.4,939.543C1557.25,936.45 1557.19,931.385 1560.29,928.229L1783.78,700.241C1786.87,697.087 1791.94,697.036 1795.09,700.129C1798.25,703.222 1798.3,708.287 1795.2,711.442L1571.71,939.431C1570.15,941.028 1568.07,941.83 1566,941.83" style="fill:rgb(10,36,99);fill-rule:nonzero;"/>
            <path d="M1214.11,1023.44C1212.09,1023.44 1210.07,1022.68 1208.51,1021.15C1205.36,1018.06 1205.31,1013 1208.4,1009.84L1319.04,896.97C1322.13,893.818 1327.2,893.766 1330.35,896.859C1333.51,899.951 1333.56,905.017 1330.46,908.172L1219.82,1021.04C1218.26,1022.64 1216.18,1023.44 1214.11,1023.44" style="fill:rgb(27,153,139);fill-rule:nonzero;"/>
            <path d="M1534.81,673.494C1532.79,673.494 1530.77,672.733 1529.21,671.207C1526.06,668.114 1526.01,663.049 1529.1,659.893L1752.59,431.906C1755.68,428.751 1760.75,428.7 1763.9,431.793C1767.06,434.886 1767.11,439.951 1764.01,443.106L1540.52,671.095C1538.96,672.692 1536.88,673.494 1534.81,673.494" style="fill:rgb(27,153,139);fill-rule:nonzero;"/>
            <path d="M529.238,475.613C527.217,475.613 525.195,474.852 523.638,473.326C520.483,470.233 520.433,465.168 523.526,462.013L747.015,234.025C750.108,230.87 755.174,230.819 758.328,233.912C761.483,237.005 761.533,242.07 758.441,245.225L534.951,473.213C533.385,474.811 531.312,475.613 529.238,475.613" style="fill:rgb(10,36,99);fill-rule:nonzero;"/>
            <path d="M486.567,1015.9C484.546,1015.9 482.524,1015.14 480.967,1013.61C477.812,1010.52 477.762,1005.46 480.855,1002.3L704.344,774.311C707.437,771.158 712.503,771.106 715.657,774.199C718.812,777.292 718.862,782.357 715.77,785.512L492.28,1013.5C490.714,1015.1 488.641,1015.9 486.567,1015.9" style="fill:rgb(251,54,64);fill-rule:nonzero;"/>
            <path d="M421.845,509.567C419.824,509.567 417.803,508.806 416.245,507.28C413.09,504.187 413.04,499.122 416.133,495.967L506.833,403.441C509.926,400.285 514.991,400.235 518.146,403.328C521.301,406.421 521.351,411.486 518.259,414.641L427.558,507.167C425.992,508.765 423.919,509.567 421.845,509.567" style="fill:rgb(251,54,64);fill-rule:nonzero;"/>
            <path d="M694.041,379.507C692.02,379.507 689.999,378.746 688.441,377.22C685.286,374.127 685.236,369.062 688.329,365.907L774.601,277.898C777.694,274.743 782.759,274.693 785.914,277.785C789.069,280.878 789.12,285.943 786.027,289.098L699.754,377.107C698.188,378.705 696.115,379.507 694.041,379.507" style="fill:rgb(251,54,64);fill-rule:nonzero;"/>
            <path d="M1773.71,303.034C1771.69,303.034 1769.67,302.273 1768.11,300.747C1764.95,297.654 1764.9,292.589 1768,289.434L1895.89,158.971C1898.98,155.817 1904.04,155.766 1907.2,158.859C1910.36,161.951 1910.4,167.016 1907.31,170.172L1779.42,300.634C1777.86,302.232 1775.78,303.034 1773.71,303.034" style="fill:rgb(251,54,64);fill-rule:nonzero;"/>
            <path d="M1820.05,941.83C1818.03,941.83 1816.01,941.069 1814.45,939.543C1811.3,936.45 1811.25,931.385 1814.34,928.229L1887,854.101C1890.1,850.948 1895.16,850.896 1898.32,853.989C1901.47,857.082 1901.52,862.147 1898.43,865.303L1825.76,939.431C1824.2,941.028 1822.12,941.83 1820.05,941.83" style="fill:rgb(251,54,64);fill-rule:nonzero;"/>
            <path d="M1404.79,575.792C1402.77,575.792 1400.75,575.031 1399.19,573.505C1396.04,570.412 1395.99,565.347 1399.08,562.191L1518.23,440.647C1521.32,437.493 1526.38,437.441 1529.54,440.534C1532.69,443.627 1532.74,448.692 1529.65,451.847L1410.5,573.393C1408.94,574.99 1406.86,575.792 1404.79,575.792" style="fill:rgb(251,54,64);fill-rule:nonzero;"/>
            <path d="M766.032,885.045C764.011,885.045 761.99,884.284 760.432,882.758C757.277,879.665 757.227,874.6 760.32,871.444L798.944,832.043C802.037,828.888 807.102,828.838 810.257,831.931C813.412,835.024 813.462,840.089 810.369,843.244L771.745,882.646C770.179,884.243 768.106,885.045 766.032,885.045" style="fill:rgb(10,36,99);fill-rule:nonzero;"/>
            <path d="M848.213,801.209C846.192,801.209 844.171,800.448 842.613,798.922C839.458,795.829 839.408,790.764 842.501,787.608L983.81,643.456C986.904,640.301 991.968,640.252 995.123,643.344C998.278,646.437 998.328,651.502 995.235,654.657L853.926,798.81C852.36,800.407 850.287,801.209 848.213,801.209" style="fill:rgb(251,54,64);fill-rule:nonzero;"/>
            <path d="M294.372,318.566C292.351,318.566 290.33,317.805 288.772,316.279C285.617,313.186 285.567,308.121 288.66,304.966L512.15,76.978C515.243,73.822 520.308,73.773 523.463,76.865C526.618,79.958 526.668,85.023 523.576,88.178L300.085,316.166C298.519,317.764 296.446,318.566 294.372,318.566" style="fill:rgb(251,54,64);fill-rule:nonzero;"/>
            <path d="M232.85,1071.84C230.829,1071.84 228.808,1071.08 227.25,1069.55C224.095,1066.46 224.045,1061.39 227.138,1058.24L354.586,928.226C357.679,925.071 362.744,925.021 365.899,928.113C369.054,931.206 369.104,936.272 366.012,939.427L238.563,1069.44C236.997,1071.04 234.924,1071.84 232.85,1071.84" style="fill:rgb(251,54,64);fill-rule:nonzero;"/>
            <path d="M18.782,182.758C17.014,182.758 15.245,182.092 13.882,180.757C11.121,178.05 11.077,173.618 13.783,170.858L156.507,25.262C159.213,22.502 163.644,22.457 166.406,25.163C169.167,27.87 169.211,32.302 166.505,35.063L23.782,180.658C22.41,182.056 20.597,182.758 18.782,182.758" style="fill:rgb(251,54,64);fill-rule:nonzero;"/>
            <path d="M793.593,699.884C791.572,699.884 789.551,699.123 787.993,697.597C784.838,694.504 784.788,689.439 787.881,686.283L1011.37,458.296C1014.46,455.141 1019.53,455.09 1022.68,458.183C1025.84,461.276 1025.89,466.341 1022.8,469.496L799.306,697.485C797.74,699.082 795.667,699.884 793.593,699.884" style="fill:rgb(251,54,64);fill-rule:nonzero;"/>
            <path d="M1151.13,616.709C1149.11,616.709 1147.09,615.948 1145.53,614.422C1142.38,611.329 1142.33,606.264 1145.42,603.108L1368.91,375.121C1372,371.966 1377.07,371.915 1380.22,375.008C1383.38,378.101 1383.43,383.166 1380.33,386.321L1156.84,614.31C1155.28,615.907 1153.2,616.709 1151.13,616.709" style="fill:rgb(27,153,139);fill-rule:nonzero;"/>
            <path d="M1374.62,1015.9C1372.6,1015.9 1370.58,1015.14 1369.02,1013.61C1365.87,1010.52 1365.82,1005.46 1368.91,1002.3L1592.4,774.311C1595.49,771.158 1600.56,771.106 1603.71,774.199C1606.87,777.292 1606.92,782.357 1603.82,785.512L1380.33,1013.5C1378.77,1015.1 1376.69,1015.9 1374.62,1015.9" style="fill:rgb(251,54,64);fill-rule:nonzero;"/>
            <path d="M1789.49,568.242C1787.47,568.242 1785.45,567.481 1783.89,565.955C1780.74,562.862 1780.68,557.797 1783.78,554.641L1886.14,450.22C1889.23,447.065 1894.3,447.013 1897.45,450.107C1900.61,453.2 1900.66,458.264 1897.57,461.42L1795.2,565.843C1793.64,567.44 1791.56,568.242 1789.49,568.242" style="fill:rgb(251,54,64);fill-rule:nonzero;"/>
            <path d="M62.631,901.908C60.61,901.908 58.589,901.147 57.031,899.621C53.876,896.528 53.826,891.463 56.919,888.307L280.409,660.319C283.502,657.165 288.567,657.114 291.722,660.207C294.877,663.3 294.927,668.365 291.835,671.52L68.344,899.509C66.778,901.106 64.705,901.908 62.631,901.908" style="fill:rgb(27,153,139);fill-rule:nonzero;"/>
            <path d="M987.988,1051.32C985.967,1051.32 983.946,1050.56 982.388,1049.03C979.234,1045.94 979.183,1040.88 982.276,1037.72L1114.14,903.199C1117.24,900.046 1122.3,899.994 1125.46,903.087C1128.61,906.179 1128.66,911.245 1125.57,914.4L993.702,1048.92C992.135,1050.52 990.062,1051.32 987.988,1051.32" style="fill:rgb(251,54,64);fill-rule:nonzero;"/>
            <path d="M23.085,424.362C21.064,424.362 19.043,423.601 17.485,422.075C14.33,418.982 14.28,413.917 17.373,410.762L240.863,182.774C243.956,179.618 249.021,179.568 252.176,182.661C255.331,185.754 255.381,190.819 252.289,193.974L28.798,421.962C27.232,423.56 25.159,424.362 23.085,424.362" style="fill:rgb(27,153,139);fill-rule:nonzero;"/>
            <path d="M1352.62,263.048C1350.6,263.048 1348.58,262.287 1347.02,260.761C1343.87,257.668 1343.82,252.603 1346.91,249.448L1570.4,21.46C1573.49,18.305 1578.56,18.254 1581.71,21.347C1584.87,24.44 1584.92,29.505 1581.82,32.66L1358.33,260.648C1356.77,262.246 1354.69,263.048 1352.62,263.048" style="fill:rgb(27,153,139);fill-rule:nonzero;"/>
            <path d="M1454.25,85.226C1452.23,85.226 1450.21,84.465 1448.65,82.939C1445.5,79.846 1445.44,74.781 1448.54,71.626L1500.5,18.616C1503.6,15.461 1508.66,15.41 1511.82,18.503C1514.97,21.596 1515.02,26.661 1511.93,29.816L1459.96,82.826C1458.4,84.424 1456.32,85.226 1454.25,85.226" style="fill:rgb(27,153,139);fill-rule:nonzero;"/>
            <path d="M557.852,185.362C555.831,185.362 553.81,184.601 552.252,183.075C549.097,179.982 549.047,174.917 552.14,171.762L640.133,81.998C643.226,78.842 648.291,78.792 651.446,81.885C654.601,84.978 654.651,90.043 651.559,93.198L563.565,182.962C561.999,184.56 559.926,185.362 557.852,185.362" style="fill:rgb(10,36,99);fill-rule:nonzero;"/>
            <path d="M1368.5,943.007C1366.48,943.007 1364.46,942.246 1362.9,940.72C1359.75,937.627 1359.69,932.562 1362.79,929.406L1414.17,876.988C1417.26,873.834 1422.33,873.783 1425.49,876.876C1428.64,879.969 1428.69,885.034 1425.6,888.19L1374.21,940.608C1372.65,942.205 1370.57,943.007 1368.5,943.007" style="fill:rgb(10,36,99);fill-rule:nonzero;"/>
            <path d="M557.852,297.724C555.831,297.724 553.81,296.963 552.252,295.437C549.097,292.344 549.047,287.279 552.14,284.124L663.857,170.158C666.95,167.002 672.015,166.953 675.17,170.045C678.325,173.138 678.375,178.203 675.283,181.358L563.565,295.324C561.999,296.922 559.926,297.724 557.852,297.724" style="fill:rgb(10,36,99);fill-rule:nonzero;"/>
            <path d="M529.238,623.562C527.217,623.562 525.196,622.801 523.638,621.274C520.483,618.182 520.433,613.117 523.526,609.961L747.016,381.973C750.109,378.818 755.174,378.768 758.329,381.86C761.484,384.954 761.534,390.019 758.442,393.173L534.951,621.163C533.385,622.759 531.312,623.562 529.238,623.562" style="fill:rgb(27,153,139);fill-rule:nonzero;"/>
            <path d="M738.566,1043.92C736.545,1043.92 734.524,1043.16 732.966,1041.63C729.811,1038.54 729.761,1033.47 732.854,1030.32L872.065,888.306C875.158,885.15 880.223,885.101 883.378,888.193C886.533,891.286 886.584,896.352 883.491,899.507L744.279,1041.52C742.713,1043.12 740.64,1043.92 738.566,1043.92" style="fill:rgb(27,153,139);fill-rule:nonzero;"/>
            <path d="M1630.15,1061.46C1628.13,1061.46 1626.11,1060.7 1624.55,1059.17C1621.4,1056.08 1621.35,1051.02 1624.44,1047.86L1741.71,928.226C1744.8,925.072 1749.87,925.021 1753.02,928.113C1756.18,931.206 1756.23,936.272 1753.13,939.427L1635.86,1059.06C1634.3,1060.66 1632.22,1061.46 1630.15,1061.46" style="fill:rgb(251,54,64);fill-rule:nonzero;"/>
            <path d="M30.204,657.603C28.183,657.602 26.162,656.841 24.604,655.315C21.449,652.222 21.399,647.157 24.492,644.001L112.089,554.641C115.183,551.487 120.247,551.437 123.402,554.529C126.558,557.622 126.608,562.687 123.515,565.842L35.917,655.203C34.351,656.8 32.278,657.602 30.204,657.602" style="fill:rgb(27,153,139);fill-rule:nonzero;"/>
            <path d="M294.371,771.051C292.35,771.051 290.329,770.29 288.771,768.764C285.616,765.671 285.566,760.606 288.659,757.45L512.149,529.464C515.242,526.308 520.307,526.259 523.462,529.351C526.617,532.444 526.667,537.509 523.575,540.664L300.084,768.652C298.518,770.249 296.445,771.051 294.371,771.051" style="fill:rgb(251,54,64);fill-rule:nonzero;"/>
            <path d="M989.521,271.773C987.499,271.773 985.478,271.012 983.92,269.486C980.765,266.393 980.715,261.328 983.808,258.173L1207.3,30.185C1210.39,27.031 1215.46,26.979 1218.61,30.072C1221.77,33.165 1221.82,38.23 1218.72,41.385L995.234,269.373C993.667,270.971 991.594,271.773 989.52,271.773" style="fill:rgb(10,36,99);fill-rule:nonzero;"/>
            <path d="M1188.7,941.83C1186.68,941.83 1184.66,941.069 1183.1,939.543C1179.94,936.45 1179.89,931.385 1182.99,928.229L1406.48,700.241C1409.57,697.087 1414.64,697.036 1417.79,700.129C1420.95,703.222 1421,708.287 1417.9,711.442L1194.41,939.431C1192.85,941.028 1190.77,941.83 1188.7,941.83" style="fill:rgb(10,36,99);fill-rule:nonzero;"/>
            <path d="M1431.94,388.723C1429.92,388.723 1427.9,387.962 1426.34,386.436C1423.18,383.343 1423.13,378.278 1426.23,375.123L1649.72,147.135C1652.81,143.98 1657.88,143.929 1661.03,147.022C1664.19,150.115 1664.24,155.18 1661.14,158.335L1437.65,386.323C1436.09,387.921 1434.01,388.723 1431.94,388.723" style="fill:rgb(10,36,99);fill-rule:nonzero;"/>
            <path d="M397.164,132.481L334.335,196.574" style="fill:none;fill-rule:nonzero;"/>
            <path d="M334.335,203.574C332.567,203.574 330.798,202.908 329.435,201.573C326.673,198.866 326.63,194.434 329.335,191.674L392.164,127.58C394.871,124.819 399.302,124.775 402.063,127.482C404.825,130.188 404.868,134.62 402.162,137.381L339.335,201.474C337.962,202.872 336.15,203.574 334.335,203.574" style="fill:rgb(10,36,99);fill-rule:nonzero;"/>
            <path d="M250.482,498.482C248.703,498.482 246.924,497.808 245.559,496.459C242.811,493.74 242.787,489.308 245.505,486.559L507.569,221.623C510.288,218.874 514.72,218.851 517.468,221.569C520.217,224.288 520.241,228.72 517.522,231.468L255.459,496.405C254.089,497.789 252.286,498.482 250.482,498.482" style="fill:rgb(251,54,64);fill-rule:nonzero;"/>
            <path d="M346.169,327.503L161.506,513.627" style="fill:none;fill-rule:nonzero;"/>
            <path d="M161.506,520.627C159.724,520.627 157.941,519.951 156.576,518.596C153.831,515.873 153.814,511.441 156.537,508.697L341.2,322.573C343.924,319.828 348.356,319.812 351.099,322.534C353.844,325.257 353.861,329.689 351.138,332.433L166.475,518.557C165.107,519.937 163.306,520.627 161.506,520.627" style="fill:rgb(10,36,99);fill-rule:nonzero;"/>
            <path d="M365.749,90.579C363.728,90.579 361.707,89.818 360.149,88.292C356.994,85.199 356.944,80.134 360.037,76.979L400.902,35.29C403.995,32.136 409.061,32.085 412.215,35.178C415.371,38.27 415.421,43.335 412.328,46.491L371.462,88.179C369.896,89.777 367.823,90.579 365.749,90.579" style="fill:rgb(251,54,64);fill-rule:nonzero;"/>
            <path d="M516.986,822.054C514.965,822.054 512.944,821.293 511.386,819.767C508.231,816.674 508.181,811.609 511.274,808.453L552.139,766.765C555.232,763.61 560.298,763.56 563.452,766.653C566.608,769.745 566.658,774.811 563.565,777.966L522.699,819.655C521.133,821.252 519.06,822.054 516.986,822.054" style="fill:rgb(10,36,99);fill-rule:nonzero;"/>
            <path d="M117.781,169.898C115.76,169.898 113.738,169.137 112.181,167.611C109.026,164.518 108.976,159.453 112.069,156.298L152.934,114.609C156.027,111.455 161.092,111.403 164.247,114.497C167.403,117.589 167.453,122.654 164.36,125.81L123.494,167.498C121.928,169.096 119.855,169.898 117.781,169.898" style="fill:rgb(251,54,64);fill-rule:nonzero;"/>
            <path d="M218.622,79.366C216.601,79.366 214.579,78.605 213.022,77.079C209.867,73.986 209.817,68.921 212.91,65.766L253.775,24.077C256.868,20.923 261.933,20.872 265.088,23.965C268.244,27.057 268.294,32.122 265.201,35.278L224.335,76.966C222.769,78.564 220.696,79.366 218.622,79.366" style="fill:rgb(251,54,64);fill-rule:nonzero;"/>
            <path d="M732.294,193.372C730.273,193.372 728.251,192.611 726.694,191.085C723.539,187.992 723.489,182.927 726.582,179.772L767.447,138.083C770.54,134.929 775.606,134.878 778.76,137.971C781.916,141.063 781.966,146.128 778.873,149.284L738.007,190.972C736.441,192.57 734.368,193.372 732.294,193.372" style="fill:rgb(27,153,139);fill-rule:nonzero;"/>
            <path d="M905.338,449.409C903.317,449.409 901.295,448.648 899.738,447.122C896.583,444.029 896.533,438.964 899.626,435.809L940.491,394.12C943.584,390.966 948.65,390.915 951.804,394.008C954.96,397.1 955.01,402.165 951.917,405.321L911.051,447.009C909.485,448.607 907.412,449.409 905.338,449.409" style="fill:rgb(251,54,64);fill-rule:nonzero;"/>
            <path d="M905.338,225.418C903.317,225.418 901.295,224.657 899.738,223.131C896.583,220.038 896.533,214.973 899.626,211.818L940.491,170.129C943.584,166.975 948.65,166.924 951.804,170.017C954.96,173.109 955.01,178.174 951.917,181.33L911.051,223.018C909.485,224.616 907.412,225.418 905.338,225.418" style="fill:rgb(251,54,64);fill-rule:nonzero;"/>
            <path d="M905.338,95.889C903.317,95.889 901.295,95.128 899.738,93.602C896.583,90.509 896.533,85.444 899.626,82.289L940.491,40.6C943.584,37.446 948.65,37.395 951.804,40.488C954.96,43.58 955.01,48.645 951.917,51.801L911.051,93.489C909.485,95.087 907.412,95.889 905.338,95.889" style="fill:rgb(251,54,64);fill-rule:nonzero;"/>
            <path d="M869.299,325.067C867.278,325.067 865.257,324.306 863.699,322.78C860.544,319.687 860.494,314.622 863.587,311.467L954.287,218.941C957.38,215.785 962.444,215.735 965.6,218.828C968.756,221.921 968.805,226.985 965.713,230.141L875.012,322.667C873.446,324.265 871.373,325.067 869.299,325.067" style="fill:rgb(27,153,139);fill-rule:nonzero;"/>
            <path d="M673.299,669.067C671.278,669.067 669.257,668.306 667.699,666.78C664.544,663.687 664.494,658.622 667.587,655.466L758.287,562.94C761.38,559.787 766.445,559.735 769.6,562.828C772.755,565.921 772.805,570.986 769.713,574.141L679.012,666.668C677.446,668.265 675.373,669.067 673.299,669.067" style="fill:rgb(27,153,139);fill-rule:nonzero;"/>
            <path d="M266.252,931.309C264.231,931.309 262.21,930.548 260.652,929.022C257.497,925.929 257.447,920.864 260.54,917.708L351.24,825.182C354.332,822.029 359.398,821.977 362.553,825.07C365.708,828.163 365.758,833.228 362.666,836.383L271.965,928.91C270.399,930.507 268.326,931.309 266.252,931.309" style="fill:rgb(27,153,139);fill-rule:nonzero;"/>
            <path d="M600.495,1043.5C598.474,1043.5 596.453,1042.74 594.895,1041.21C591.74,1038.12 591.69,1033.06 594.783,1029.9L685.483,937.373C688.576,934.22 693.641,934.168 696.796,937.261C699.951,940.354 700.001,945.419 696.909,948.574L606.208,1041.1C604.642,1042.7 602.569,1043.5 600.495,1043.5" style="fill:rgb(251,54,64);fill-rule:nonzero;"/>
            <path d="M1545.57,190.742C1543.55,190.742 1541.53,189.981 1539.97,188.455C1536.82,185.362 1536.77,180.297 1539.86,177.142L1580.72,135.453C1583.82,132.299 1588.88,132.248 1592.04,135.341C1595.19,138.433 1595.24,143.499 1592.15,146.654L1551.28,188.342C1549.72,189.94 1547.64,190.742 1545.57,190.742" style="fill:rgb(251,54,64);fill-rule:nonzero;"/>
            <path d="M1503.5,589.088C1501.48,589.088 1499.46,588.327 1497.9,586.801C1494.75,583.708 1494.69,578.643 1497.79,575.487L1538.65,533.799C1541.75,530.646 1546.81,530.593 1549.97,533.687C1553.12,536.779 1553.17,541.845 1550.08,545L1509.21,586.689C1507.65,588.286 1505.57,589.088 1503.5,589.088" style="fill:rgb(251,54,64);fill-rule:nonzero;"/>
            <path d="M1139.08,504.992C1137.06,504.992 1135.04,504.231 1133.48,502.705C1130.33,499.612 1130.28,494.547 1133.37,491.392L1174.23,449.704C1177.33,446.55 1182.39,446.498 1185.55,449.592C1188.7,452.684 1188.75,457.75 1185.66,460.905L1144.79,502.592C1143.23,504.19 1141.15,504.992 1139.08,504.992" style="fill:rgb(10,36,99);fill-rule:nonzero;"/>
            <path d="M839.93,216.161C837.909,216.161 835.888,215.4 834.33,213.874C831.175,210.781 831.125,205.716 834.218,202.561L924.918,110.035C928.011,106.879 933.076,106.829 936.231,109.922C939.386,113.015 939.436,118.079 936.344,121.235L845.643,213.761C844.077,215.359 842.004,216.161 839.93,216.161" style="fill:rgb(27,153,139);fill-rule:nonzero;"/>
            <path d="M1076.96,493.501C1074.94,493.501 1072.92,492.74 1071.36,491.214C1068.2,488.121 1068.15,483.056 1071.25,479.901L1294.74,251.913C1297.83,248.759 1302.9,248.708 1306.05,251.8C1309.21,254.893 1309.26,259.958 1306.16,263.113L1082.67,491.101C1081.11,492.699 1079.03,493.501 1076.96,493.501" style="fill:rgb(27,153,139);fill-rule:nonzero;"/>
            <path d="M1447.54,478.091L1262.88,664.216" style="fill:none;fill-rule:nonzero;"/>
            <path d="M1262.87,671.216C1261.09,671.216 1259.31,670.539 1257.94,669.185C1255.19,666.462 1255.18,662.03 1257.9,659.285L1442.56,473.161C1445.29,470.416 1449.72,470.398 1452.46,473.122C1455.21,475.845 1455.23,480.277 1452.5,483.021L1267.84,669.147C1266.47,670.526 1264.67,671.216 1262.87,671.216" style="fill:rgb(10,36,99);fill-rule:nonzero;"/>
            <path d="M1118.65,769.679C1116.63,769.679 1114.61,768.918 1113.05,767.392C1109.89,764.299 1109.85,759.234 1112.94,756.078L1153.8,714.39C1156.9,711.236 1161.96,711.185 1165.12,714.278C1168.27,717.37 1168.32,722.436 1165.23,725.591L1124.36,767.28C1122.8,768.877 1120.72,769.679 1118.65,769.679" style="fill:rgb(251,54,64);fill-rule:nonzero;"/>
            <path d="M537.419,748.835C535.398,748.835 533.376,748.074 531.818,746.548C528.664,743.455 528.614,738.39 531.707,735.234L572.573,693.546C575.665,690.392 580.731,690.341 583.886,693.434C587.04,696.526 587.091,701.592 583.999,704.747L543.131,746.436C541.566,748.033 539.492,748.835 537.419,748.835" style="fill:rgb(251,54,64);fill-rule:nonzero;"/>
            <path d="M1615.25,334.058C1613.23,334.058 1611.21,333.297 1609.65,331.771C1606.5,328.678 1606.44,323.613 1609.54,320.458L1650.4,278.769C1653.5,275.615 1658.56,275.564 1661.72,278.657C1664.87,281.749 1664.92,286.814 1661.83,289.97L1620.96,331.658C1619.4,333.256 1617.32,334.058 1615.25,334.058" style="fill:rgb(10,36,99);fill-rule:nonzero;"/>
            <path d="M764.911,79.366C762.89,79.366 760.869,78.605 759.311,77.079C756.156,73.986 756.106,68.921 759.199,65.766L800.064,24.077C803.157,20.923 808.222,20.872 811.377,23.965C814.532,27.057 814.582,32.122 811.49,35.278L770.624,76.966C769.058,78.564 766.985,79.366 764.911,79.366" style="fill:rgb(10,36,99);fill-rule:nonzero;"/>
            <path d="M117.781,1018.09C115.76,1018.09 113.739,1017.33 112.181,1015.8C109.026,1012.71 108.976,1007.64 112.069,1004.49L152.934,962.801C156.028,959.647 161.093,959.596 164.247,962.689C167.403,965.781 167.453,970.847 164.36,974.002L123.494,1015.69C121.928,1017.29 119.855,1018.09 117.781,1018.09" style="fill:rgb(10,36,99);fill-rule:nonzero;"/>
            <path d="M1110.26,1024.56C1108.24,1024.56 1106.22,1023.8 1104.66,1022.27C1101.51,1019.18 1101.45,1014.12 1104.55,1010.96L1145.41,969.271C1148.51,966.118 1153.57,966.066 1156.73,969.159C1159.88,972.251 1159.93,977.317 1156.84,980.472L1115.97,1022.16C1114.41,1023.76 1112.33,1024.56 1110.26,1024.56" style="fill:rgb(10,36,99);fill-rule:nonzero;"/>
            <path d="M970.832,449.705C968.811,449.705 966.79,448.944 965.232,447.418C962.077,444.325 962.027,439.26 965.12,436.105L1136.64,261.127C1139.74,257.973 1144.8,257.921 1147.96,261.014C1151.11,264.107 1151.16,269.172 1148.07,272.327L976.546,447.305C974.979,448.903 972.906,449.705 970.832,449.705" style="fill:rgb(27,153,139);fill-rule:nonzero;"/>
            <path d="M842.052,418.815L769.503,492.824" style="fill:none;fill-rule:nonzero;"/>
            <path d="M769.502,499.824C767.734,499.824 765.965,499.158 764.602,497.823C761.841,495.116 761.797,490.684 764.503,487.924L837.052,413.915C839.758,411.155 844.19,411.11 846.952,413.816C849.712,416.523 849.756,420.955 847.05,423.716L774.502,497.724C773.13,499.122 771.317,499.824 769.502,499.824" style="fill:rgb(10,36,99);fill-rule:nonzero;"/>
            <path d="M1584.8,1030.32C1582.78,1030.32 1580.76,1029.56 1579.2,1028.03C1576.05,1024.94 1576,1019.88 1579.09,1016.72L1669.79,924.193C1672.88,921.04 1677.95,920.987 1681.1,924.081C1684.26,927.174 1684.31,932.239 1681.21,935.394L1590.51,1027.92C1588.95,1029.52 1586.87,1030.32 1584.8,1030.32" style="fill:rgb(27,153,139);fill-rule:nonzero;"/>
            <path d="M1622.39,115.998C1620.37,115.998 1618.35,115.237 1616.79,113.711C1613.63,110.618 1613.58,105.553 1616.68,102.398L1707.38,9.872C1710.47,6.717 1715.54,6.666 1718.69,9.759C1721.85,12.852 1721.9,17.916 1718.8,21.072L1628.1,113.598C1626.54,115.196 1624.46,115.998 1622.39,115.998" style="fill:rgb(27,153,139);fill-rule:nonzero;"/>
            <path d="M136.832,699.147L74.003,763.239" style="fill:none;fill-rule:nonzero;"/>
            <path d="M74.002,770.239C72.234,770.239 70.465,769.573 69.102,768.238C66.341,765.531 66.297,761.099 69.004,758.339L131.833,694.246C134.539,691.484 138.97,691.441 141.732,694.147C144.493,696.854 144.537,701.286 141.83,704.047L79.001,768.139C77.63,769.538 75.817,770.239 74.002,770.239" style="fill:rgb(10,36,99);fill-rule:nonzero;"/>
            <path d="M1597.41,705.842L1534.58,769.934" style="fill:none;fill-rule:nonzero;"/>
            <path d="M1534.58,776.934C1532.81,776.934 1531.04,776.268 1529.68,774.933C1526.92,772.226 1526.88,767.794 1529.58,765.034L1592.41,700.942C1595.12,698.18 1599.55,698.138 1602.31,700.843C1605.07,703.55 1605.11,707.982 1602.41,710.743L1539.58,774.834C1538.21,776.233 1536.39,776.934 1534.58,776.934" style="fill:rgb(10,36,99);fill-rule:nonzero;"/>
            <path d="M1085.34,50.533L1022.51,114.625" style="fill:none;fill-rule:nonzero;"/>
            <path d="M1022.51,121.625C1020.74,121.625 1018.97,120.959 1017.61,119.624C1014.85,116.917 1014.81,112.485 1017.51,109.725L1080.34,45.633C1083.05,42.872 1087.48,42.828 1090.24,45.535C1093,48.241 1093.04,52.673 1090.34,55.434L1027.51,119.525C1026.14,120.923 1024.32,121.625 1022.51,121.625" style="fill:rgb(10,36,99);fill-rule:nonzero;"/>
            <path d="M795.415,638.517L732.586,702.61" style="fill:none;fill-rule:nonzero;"/>
            <path d="M732.585,709.609C730.817,709.609 729.048,708.943 727.685,707.608C724.924,704.901 724.88,700.469 727.587,697.709L790.416,633.616C793.122,630.854 797.553,630.812 800.315,633.517C803.076,636.224 803.12,640.656 800.413,643.417L737.584,707.509C736.213,708.908 734.4,709.609 732.585,709.609" style="fill:rgb(10,36,99);fill-rule:nonzero;"/>
            <path d="M1652.96,439.062C1650.94,439.062 1648.92,438.301 1647.36,436.775C1644.21,433.682 1644.15,428.617 1647.25,425.462L1718.91,352.359C1722,349.204 1727.07,349.153 1730.22,352.246C1733.38,355.339 1733.43,360.404 1730.33,363.559L1658.67,436.662C1657.11,438.26 1655.03,439.062 1652.96,439.062" style="fill:rgb(27,153,139);fill-rule:nonzero;"/>
            <path d="M1799.62,1038.93C1797.6,1038.93 1795.58,1038.17 1794.02,1036.64C1790.87,1033.55 1790.82,1028.49 1793.91,1025.33L1834.77,983.641C1837.87,980.488 1842.93,980.436 1846.09,983.529C1849.24,986.621 1849.29,991.687 1846.2,994.842L1805.33,1036.53C1803.77,1038.13 1801.69,1038.93 1799.62,1038.93" style="fill:rgb(10,36,99);fill-rule:nonzero;"/>
        </g>
    </g>
</svg>
