<?xml version="1.0" encoding="UTF-8" standalone="no"?>
<!DOCTYPE svg PUBLIC "-//W3C//DTD SVG 1.1//EN" "http://www.w3.org/Graphics/SVG/1.1/DTD/svg11.dtd">
<svg width="100%" height="100%" viewBox="0 0 384 512" version="1.1" xmlns="http://www.w3.org/2000/svg" xmlns:xlink="http://www.w3.org/1999/xlink" xml:space="preserve" xmlns:serif="http://www.serif.com/" style="fill-rule:evenodd;clip-rule:evenodd;stroke-linejoin:round;stroke-miterlimit:2;">
    <path d="M336,64L256,64C256,28.7 227.3,0 192,0C156.7,0 128,28.7 128,64L48,64C21.5,64 0,85.5 0,112L0,464C0,490.5 21.5,512 48,512L336,512C362.5,512 384,490.5 384,464L384,112C384,85.5 362.5,64 336,64ZM192,40C205.3,40 216,50.7 216,64C216,77.3 205.3,88 192,88C178.7,88 168,77.3 168,64C168,50.7 178.7,40 192,40ZM313.2,271.8L170.2,413.6C165.5,418.3 157.9,418.2 153.2,413.5L70.6,330.2C65.9,325.5 66,317.9 70.7,313.2L99.1,285C103.8,280.3 111.4,280.4 116.1,285.1L162.1,331.5L268.1,226.3C272.8,221.6 280.4,221.7 285.1,226.4L313.3,254.8C318,259.6 317.9,267.1 313.2,271.8Z" style="fill:rgb(27,153,139);fill-rule:nonzero;"/>
</svg>
